<svg width="32" height="32" viewBox="0 0 32 32" fill="none" xmlns="http://www.w3.org/2000/svg">
<path d="M29.3333 29.333H2.66663" stroke="#073A41" stroke-width="1.5" stroke-linecap="round"/>
<path d="M28 29.3332V7.99984C28 5.48517 28 4.22917 27.2187 3.44784C26.4373 2.6665 25.1813 2.6665 22.6667 2.6665H20C17.4853 2.6665 16.2293 2.6665 15.448 3.44784C14.8187 4.07584 14.696 5.01317 14.672 6.6665" stroke="#073A41" stroke-width="1.5"/>
<path d="M20 29.3332V11.9998C20 9.48517 20 8.22917 19.2187 7.44784C18.4373 6.6665 17.1813 6.6665 14.6667 6.6665H9.33333C6.81867 6.6665 5.56267 6.6665 4.78133 7.44784C4 8.22917 4 9.48517 4 11.9998V29.3332" stroke="#073A41" stroke-width="1.5"/>
<path d="M12 29.3332V25.3332M8 10.6665H16M8 14.6665H16M8 18.6665H16" stroke="#073A41" stroke-width="1.5" stroke-linecap="round"/>
</svg>
