<svg width="186" height="54" viewBox="0 0 186 54" fill="none" xmlns="http://www.w3.org/2000/svg">
<g filter="url(#filter0_d_106_40)">
<circle cx="24" cy="24" r="17" stroke="#E4E9EA" stroke-width="6"/>
<path d="M70.1839 20.413C70.1839 21.4583 69.9319 22.4383 69.4279 23.353C68.9426 24.2676 68.1679 25.005 67.1039 25.565C66.0586 26.125 64.7332 26.405 63.1279 26.405H59.8519V33.909H55.9319V14.365H63.1279C64.6399 14.365 65.9279 14.6263 66.9919 15.149C68.0559 15.6716 68.8492 16.3903 69.3719 17.305C69.9132 18.2196 70.1839 19.2556 70.1839 20.413ZM62.9599 23.241C64.0426 23.241 64.8452 22.9983 65.3679 22.513C65.8906 22.009 66.1519 21.309 66.1519 20.413C66.1519 18.509 65.0879 17.557 62.9599 17.557H59.8519V23.241H62.9599Z" fill="#E4E9EA"/>
<path d="M78.735 34.161C77.2417 34.161 75.8977 33.8343 74.703 33.181C73.5084 32.509 72.5657 31.5663 71.875 30.353C71.203 29.1396 70.867 27.7396 70.867 26.153C70.867 24.5663 71.2124 23.1663 71.903 21.953C72.6124 20.7396 73.5737 19.8063 74.787 19.153C76.0004 18.481 77.3537 18.145 78.847 18.145C80.3404 18.145 81.6937 18.481 82.907 19.153C84.1204 19.8063 85.0724 20.7396 85.763 21.953C86.4724 23.1663 86.827 24.5663 86.827 26.153C86.827 27.7396 86.463 29.1396 85.735 30.353C85.0257 31.5663 84.055 32.509 82.823 33.181C81.6097 33.8343 80.247 34.161 78.735 34.161ZM78.735 30.745C79.4444 30.745 80.107 30.577 80.723 30.241C81.3577 29.8863 81.8617 29.3636 82.235 28.673C82.6084 27.9823 82.795 27.1423 82.795 26.153C82.795 24.6783 82.403 23.549 81.619 22.765C80.8537 21.9623 79.911 21.561 78.791 21.561C77.671 21.561 76.7284 21.9623 75.963 22.765C75.2164 23.549 74.843 24.6783 74.843 26.153C74.843 27.6276 75.207 28.7663 75.935 29.569C76.6817 30.353 77.615 30.745 78.735 30.745Z" fill="#E4E9EA"/>
<path d="M92.5025 13.189V33.909H88.5825V13.189H92.5025Z" fill="#E4E9EA"/>
<path d="M110.095 18.397L100.491 41.245H96.3195L99.6795 33.517L93.4635 18.397H97.8595L101.863 29.233L105.923 18.397H110.095Z" fill="#E4E9EA"/>
<path d="M130.353 18.173C132.257 18.173 133.787 18.761 134.945 19.937C136.121 21.0943 136.709 22.7183 136.709 24.809V33.909H132.789V25.341C132.789 24.1276 132.481 23.2036 131.865 22.569C131.249 21.9156 130.409 21.589 129.345 21.589C128.281 21.589 127.431 21.9156 126.797 22.569C126.181 23.2036 125.873 24.1276 125.873 25.341V33.909H121.953V25.341C121.953 24.1276 121.645 23.2036 121.029 22.569C120.413 21.9156 119.573 21.589 118.509 21.589C117.426 21.589 116.567 21.9156 115.933 22.569C115.317 23.2036 115.009 24.1276 115.009 25.341V33.909H111.089V18.397H115.009V20.273C115.513 19.6196 116.157 19.1063 116.941 18.733C117.743 18.3596 118.621 18.173 119.573 18.173C120.786 18.173 121.869 18.4343 122.821 18.957C123.773 19.461 124.51 20.189 125.033 21.141C125.537 20.245 126.265 19.5263 127.217 18.985C128.187 18.4436 129.233 18.173 130.353 18.173Z" fill="#E4E9EA"/>
<path d="M138.3 26.097C138.3 24.529 138.608 23.1383 139.224 21.925C139.859 20.7116 140.708 19.7783 141.772 19.125C142.855 18.4716 144.059 18.145 145.384 18.145C146.542 18.145 147.55 18.3783 148.408 18.845C149.286 19.3116 149.986 19.8996 150.508 20.609V18.397H154.456V33.909H150.508V31.641C150.004 32.369 149.304 32.9756 148.408 33.461C147.531 33.9276 146.514 34.161 145.356 34.161C144.05 34.161 142.855 33.825 141.772 33.153C140.708 32.481 139.859 31.5383 139.224 30.325C138.608 29.093 138.3 27.6836 138.3 26.097ZM150.508 26.153C150.508 25.201 150.322 24.389 149.948 23.717C149.575 23.0263 149.071 22.5036 148.436 22.149C147.802 21.7756 147.12 21.589 146.392 21.589C145.664 21.589 144.992 21.7663 144.376 22.121C143.76 22.4756 143.256 22.9983 142.864 23.689C142.491 24.361 142.304 25.1636 142.304 26.097C142.304 27.0303 142.491 27.8516 142.864 28.561C143.256 29.2516 143.76 29.7836 144.376 30.157C145.011 30.5303 145.683 30.717 146.392 30.717C147.12 30.717 147.802 30.5396 148.436 30.185C149.071 29.8116 149.575 29.289 149.948 28.617C150.322 27.9263 150.508 27.105 150.508 26.153Z" fill="#E4E9EA"/>
<path d="M161.729 21.617V29.121C161.729 29.6436 161.85 30.0263 162.093 30.269C162.354 30.493 162.784 30.605 163.381 30.605H165.201V33.909H162.737C159.433 33.909 157.781 32.3036 157.781 29.093V21.617H155.933V18.397H157.781V14.561H161.729V18.397H165.201V21.617H161.729Z" fill="#E4E9EA"/>
<path d="M175.636 18.173C176.812 18.173 177.858 18.4343 178.772 18.957C179.687 19.461 180.396 20.217 180.9 21.225C181.423 22.2143 181.684 23.409 181.684 24.809V33.909H177.764V25.341C177.764 24.109 177.456 23.1663 176.84 22.513C176.224 21.841 175.384 21.505 174.32 21.505C173.238 21.505 172.379 21.841 171.744 22.513C171.128 23.1663 170.82 24.109 170.82 25.341V33.909H166.9V13.189H170.82V20.329C171.324 19.657 171.996 19.1343 172.836 18.761C173.676 18.369 174.61 18.173 175.636 18.173Z" fill="#E4E9EA"/>
</g>
<defs>
<filter id="filter0_d_106_40" x="0" y="0" width="186" height="56" filterUnits="userSpaceOnUse" color-interpolation-filters="sRGB">
<feFlood flood-opacity="0" result="BackgroundImageFix"/>
<feColorMatrix in="SourceAlpha" type="matrix" values="0 0 0 0 0 0 0 0 0 0 0 0 0 0 0 0 0 0 127 0" result="hardAlpha"/>
<feOffset dy="4"/>
<feGaussianBlur stdDeviation="2"/>
<feComposite in2="hardAlpha" operator="out"/>
<feColorMatrix type="matrix" values="0 0 0 0 0 0 0 0 0 0 0 0 0 0 0 0 0 0 0.25 0"/>
<feBlend mode="normal" in2="BackgroundImageFix" result="effect1_dropShadow_106_40"/>
<feBlend mode="normal" in="SourceGraphic" in2="effect1_dropShadow_106_40" result="shape"/>
</filter>
</defs>
</svg>
