<svg width="158" height="54" viewBox="0 0 158 54" fill="none" xmlns="http://www.w3.org/2000/svg">
<g filter="url(#filter0_d_106_35)">
<path opacity="0.8" d="M36.4952 4.66016C39.4556 10.4646 41.1251 17.0374 41.1251 24.0001C41.1251 30.9629 39.4556 37.5358 36.4951 43.3402C43.3484 39.6134 48.0001 32.35 48.0001 24.0002C48.0001 15.6504 43.3484 8.38703 36.4952 4.66016Z" fill="#E4E9EA"/>
<path d="M26.6024 4.1986C25.6073 2.78895 23.9122 2.02977 22.2121 2.3248C11.8669 4.12011 4 13.1413 4 23.9999C4 34.8585 11.8668 43.8797 22.212 45.675C23.9121 45.9701 25.6073 45.2109 26.6023 43.8013C30.5538 38.2035 32.875 31.3728 32.875 23.9999C32.875 16.627 30.5538 9.79629 26.6024 4.1986Z" fill="#E4E9EA"/>
<path d="M68.5841 34.2452C72.4481 34.2452 75.4721 32.8732 77.2641 30.5772V23.3812H69.8441L69.7041 27.0212L72.6721 26.8812V29.1772C71.5801 30.0452 70.2361 30.4652 68.9481 30.4652C65.7281 30.4652 63.6841 28.0292 63.6841 24.1372C63.6841 20.2452 65.5881 17.8092 68.6401 17.8092C70.6561 17.8092 72.0561 19.0132 72.2521 20.9452H77.2641C76.9281 16.6892 73.5961 14.0292 68.6401 14.0292C62.6761 14.0292 58.9241 17.9212 58.9241 24.1372C58.9241 30.3532 62.6481 34.2452 68.5841 34.2452Z" fill="#E4E9EA"/>
<path d="M89.5373 33.9092H93.7653V23.7452C93.7653 20.0772 91.0493 18.0052 86.7933 18.0052C82.4253 18.0052 79.6253 20.0212 79.3453 23.2972H83.6013C83.7413 21.9252 84.8613 21.0852 86.5973 21.0852C88.3613 21.0852 89.3973 21.9812 89.3973 23.4652V24.5292H86.5413C82.3413 24.5292 79.7933 26.3492 79.7933 29.5692C79.7933 32.3132 81.7813 34.2452 84.8053 34.2452C86.7373 34.2452 88.3893 33.7132 89.4533 32.3692L89.5373 33.9092ZM84.0773 29.2892C84.0773 28.0852 85.0013 27.5812 86.4573 27.5812L89.3973 27.5532V28.7572C88.5573 30.0452 87.4093 30.8012 85.8973 30.8012C84.6653 30.8012 84.0773 30.1292 84.0773 29.2892Z" fill="#E4E9EA"/>
<path d="M96.9769 33.9092H101.345V13.1892H96.9769V33.9092Z" fill="#E4E9EA"/>
<path d="M104.687 33.9092H109.055V18.3412H104.687V33.9092ZM104.519 16.2692H109.167V12.1812H104.519V16.2692Z" fill="#E4E9EA"/>
<path d="M112.399 33.9092H116.767V13.1892H112.399V33.9092Z" fill="#E4E9EA"/>
<path d="M127.473 34.2452C131.841 34.2452 134.809 32.0332 135.173 28.4772H130.805C130.525 29.7932 129.265 30.7452 127.473 30.7452C125.177 30.7452 123.917 29.0372 123.777 26.7972H135.229C135.649 21.3932 132.737 18.0052 127.697 18.0052C122.601 18.0052 119.381 21.1412 119.381 26.1252C119.381 31.1092 122.489 34.2452 127.473 34.2452ZM124.113 23.8012C124.645 22.2052 125.793 21.3932 127.669 21.3932C129.405 21.3932 130.665 22.3732 130.777 23.8012H124.113Z" fill="#E4E9EA"/>
<path d="M145.108 34.2452C150.092 34.2452 153.088 31.1932 153.088 26.1252C153.088 21.0572 150.092 18.0052 145.108 18.0052C140.124 18.0052 137.1 21.0572 137.1 26.1252C137.1 31.1932 140.124 34.2452 145.108 34.2452ZM141.468 26.1252C141.468 23.2412 142.84 21.5332 145.108 21.5332C147.348 21.5332 148.72 23.2412 148.72 26.1252C148.72 29.0092 147.348 30.7172 145.108 30.7172C142.84 30.7172 141.468 29.0092 141.468 26.1252Z" fill="#E4E9EA"/>
</g>
<defs>
<filter id="filter0_d_106_35" x="0" y="0" width="158" height="56" filterUnits="userSpaceOnUse" color-interpolation-filters="sRGB">
<feFlood flood-opacity="0" result="BackgroundImageFix"/>
<feColorMatrix in="SourceAlpha" type="matrix" values="0 0 0 0 0 0 0 0 0 0 0 0 0 0 0 0 0 0 127 0" result="hardAlpha"/>
<feOffset dy="4"/>
<feGaussianBlur stdDeviation="2"/>
<feComposite in2="hardAlpha" operator="out"/>
<feColorMatrix type="matrix" values="0 0 0 0 0 0 0 0 0 0 0 0 0 0 0 0 0 0 0.25 0"/>
<feBlend mode="normal" in2="BackgroundImageFix" result="effect1_dropShadow_106_35"/>
<feBlend mode="normal" in="SourceGraphic" in2="effect1_dropShadow_106_35" result="shape"/>
</filter>
</defs>
</svg>
