<svg width="24" height="25" viewBox="0 0 24 25" fill="none" xmlns="http://www.w3.org/2000/svg">
<path fill-rule="evenodd" clip-rule="evenodd" d="M13.47 5.72434C13.6106 5.58389 13.8012 5.505 14 5.505C14.1988 5.505 14.3894 5.58389 14.53 5.72434L20.53 11.7243C20.6705 11.865 20.7493 12.0556 20.7493 12.2543C20.7493 12.4531 20.6705 12.6437 20.53 12.7843L14.53 18.7843C14.4613 18.858 14.3785 18.9171 14.2865 18.9581C14.1945 18.9991 14.0952 19.0212 13.9945 19.0229C13.8938 19.0247 13.7938 19.0062 13.7004 18.9685C13.607 18.9307 13.5222 18.8746 13.451 18.8034C13.3797 18.7322 13.3236 18.6473 13.2859 18.5539C13.2482 18.4606 13.2296 18.3605 13.2314 18.2598C13.2332 18.1591 13.2552 18.0598 13.2962 17.9678C13.3372 17.8758 13.3963 17.793 13.47 17.7243L18.19 13.0043H4C3.80109 13.0043 3.61032 12.9253 3.46967 12.7847C3.32902 12.644 3.25 12.4533 3.25 12.2543C3.25 12.0554 3.32902 11.8647 3.46967 11.724C3.61032 11.5834 3.80109 11.5043 4 11.5043H18.19L13.47 6.78435C13.3295 6.64372 13.2507 6.4531 13.2507 6.25434C13.2507 6.05559 13.3295 5.86497 13.47 5.72434Z" fill="#073A41"/>
</svg>
