<svg width="24" height="25" viewBox="0 0 24 25" fill="none" xmlns="http://www.w3.org/2000/svg">
<path d="M15.75 5.25H12.75V3.75H17.25V2.25H6.75V3.75H11.25V5.25H8.25C7.2558 5.25119 6.30267 5.64666 5.59966 6.34966C4.89666 7.05267 4.50119 8.0058 4.5 9V17.25C4.50279 18.0561 4.76578 18.8398 5.24983 19.4844C5.73389 20.129 6.41314 20.6 7.1865 20.8275L6.1485 23.25H7.7805L8.74425 21H15.2557L16.2203 23.25H17.8515L16.8135 20.8275C17.5869 20.6 18.2661 20.129 18.7502 19.4844C19.2342 18.8398 19.4972 18.0561 19.5 17.25V9C19.4988 8.0058 19.1033 7.05267 18.4003 6.34966C17.6973 5.64666 16.7442 5.25119 15.75 5.25ZM8.25 6.75H15.75C16.2138 6.75138 16.6659 6.89631 17.044 7.16488C17.4222 7.43346 17.7079 7.81252 17.862 8.25H6.138C6.29209 7.81252 6.57783 7.43346 6.95599 7.16488C7.33415 6.89631 7.78617 6.75138 8.25 6.75ZM18 16.5H15.75V18H17.862C17.7079 18.4375 17.4222 18.8165 17.044 19.0851C16.6659 19.3537 16.2138 19.4986 15.75 19.5H8.25C7.78617 19.4986 7.33415 19.3537 6.95599 19.0851C6.57783 18.8165 6.29209 18.4375 6.138 18H8.25V16.5H6V15H18V16.5ZM18 13.5H6V9.75H18V13.5Z" fill="#073A41"/>
</svg>
