<svg width="210" height="54" viewBox="0 0 210 54" fill="none" xmlns="http://www.w3.org/2000/svg">
<g filter="url(#filter0_d_106_41)">
<path fill-rule="evenodd" clip-rule="evenodd" d="M4 24C17.9836 24 26 15.9836 26 2C26 15.9836 34.0164 24 48 24C34.0164 24 26 32.0164 26 46C26 32.0164 17.9836 24 4 24Z" fill="#E4E9EA"/>
<path d="M56.6899 33.9093L64.3699 12.9093H68.6899L76.3699 33.9093H72.2899L70.6099 29.0493H62.4199L60.7099 33.9093H56.6899ZM63.4699 26.0493H69.5599L66.4999 17.3193L63.4699 26.0493Z" fill="#E4E9EA"/>
<path d="M84.072 34.2693C82.552 34.2693 81.212 33.9393 80.052 33.2793C78.892 32.6193 77.972 31.6993 77.292 30.5193C76.632 29.3393 76.302 27.9893 76.302 26.4693C76.302 24.9493 76.632 23.5993 77.292 22.4193C77.972 21.2393 78.892 20.3193 80.052 19.6593C81.212 18.9993 82.552 18.6693 84.072 18.6693C85.972 18.6693 87.572 19.1693 88.872 20.1693C90.172 21.1493 91.002 22.5093 91.362 24.2493H87.312C87.112 23.5293 86.712 22.9693 86.112 22.5693C85.532 22.1493 84.842 21.9393 84.042 21.9393C82.982 21.9393 82.082 22.3393 81.342 23.1393C80.602 23.9393 80.232 25.0493 80.232 26.4693C80.232 27.8893 80.602 28.9993 81.342 29.7993C82.082 30.5993 82.982 30.9993 84.042 30.9993C84.842 30.9993 85.532 30.7993 86.112 30.3993C86.712 29.9993 87.112 29.4293 87.312 28.6893H91.362C91.002 30.3693 90.172 31.7193 88.872 32.7393C87.572 33.7593 85.972 34.2693 84.072 34.2693Z" fill="#E4E9EA"/>
<path d="M93.2703 33.9093V19.0293H96.6603L96.9903 21.0393C97.4703 20.3193 98.1003 19.7493 98.8803 19.3293C99.6803 18.8893 100.6 18.6693 101.64 18.6693C103.94 18.6693 105.57 19.5593 106.53 21.3393C107.07 20.5193 107.79 19.8693 108.69 19.3893C109.61 18.9093 110.61 18.6693 111.69 18.6693C113.63 18.6693 115.12 19.2493 116.16 20.4093C117.2 21.5693 117.72 23.2693 117.72 25.5093V33.9093H113.88V25.8693C113.88 24.5893 113.63 23.6093 113.13 22.9293C112.65 22.2493 111.9 21.9093 110.88 21.9093C109.84 21.9093 109 22.2893 108.36 23.0493C107.74 23.8093 107.43 24.8693 107.43 26.2293V33.9093H103.59V25.8693C103.59 24.5893 103.34 23.6093 102.84 22.9293C102.34 22.2493 101.57 21.9093 100.53 21.9093C99.5103 21.9093 98.6803 22.2893 98.0403 23.0493C97.4203 23.8093 97.1103 24.8693 97.1103 26.2293V33.9093H93.2703Z" fill="#E4E9EA"/>
<path d="M127.096 34.2693C125.596 34.2693 124.266 33.9493 123.106 33.3093C121.946 32.6693 121.036 31.7693 120.376 30.6093C119.716 29.4493 119.386 28.1093 119.386 26.5893C119.386 25.0493 119.706 23.6793 120.346 22.4793C121.006 21.2793 121.906 20.3493 123.046 19.6893C124.206 19.0093 125.566 18.6693 127.126 18.6693C128.586 18.6693 129.876 18.9893 130.996 19.6293C132.116 20.2693 132.986 21.1493 133.606 22.2693C134.246 23.3693 134.566 24.5993 134.566 25.9593C134.566 26.1793 134.556 26.4093 134.536 26.6493C134.536 26.8893 134.526 27.1393 134.506 27.3993H123.196C123.276 28.5593 123.676 29.4693 124.396 30.1293C125.136 30.7893 126.026 31.1193 127.066 31.1193C127.846 31.1193 128.496 30.9493 129.016 30.6093C129.556 30.2493 129.956 29.7893 130.216 29.2293H134.116C133.836 30.1693 133.366 31.0293 132.706 31.8093C132.066 32.5693 131.266 33.1693 130.306 33.6093C129.366 34.0493 128.296 34.2693 127.096 34.2693ZM127.126 21.7893C126.186 21.7893 125.356 22.0593 124.636 22.5993C123.916 23.1193 123.456 23.9193 123.256 24.9993H130.666C130.606 24.0193 130.246 23.2393 129.586 22.6593C128.926 22.0793 128.106 21.7893 127.126 21.7893Z" fill="#E4E9EA"/>
<path d="M151.544 34.2693C149.424 34.2693 147.604 33.8193 146.084 32.9193C144.564 31.9993 143.394 30.7293 142.574 29.1093C141.754 27.4693 141.344 25.5793 141.344 23.4393C141.344 21.2993 141.754 19.4093 142.574 17.7693C143.394 16.1293 144.564 14.8493 146.084 13.9293C147.604 13.0093 149.424 12.5493 151.544 12.5493C154.064 12.5493 156.124 13.1793 157.724 14.4393C159.344 15.6793 160.354 17.4293 160.754 19.6893H156.524C156.264 18.5493 155.704 17.6593 154.844 17.0193C154.004 16.3593 152.884 16.0293 151.484 16.0293C149.544 16.0293 148.024 16.6893 146.924 18.0093C145.824 19.3293 145.274 21.1393 145.274 23.4393C145.274 25.7393 145.824 27.5493 146.924 28.8693C148.024 30.1693 149.544 30.8193 151.484 30.8193C152.884 30.8193 154.004 30.5193 154.844 29.9193C155.704 29.2993 156.264 28.4493 156.524 27.3693H160.754C160.354 29.5293 159.344 31.2193 157.724 32.4393C156.124 33.6593 154.064 34.2693 151.544 34.2693Z" fill="#E4E9EA"/>
<path d="M169.703 34.2693C168.263 34.2693 166.963 33.9393 165.803 33.2793C164.663 32.6193 163.753 31.7093 163.073 30.5493C162.413 29.3693 162.083 28.0093 162.083 26.4693C162.083 24.9293 162.423 23.5793 163.103 22.4193C163.783 21.2393 164.693 20.3193 165.833 19.6593C166.993 18.9993 168.293 18.6693 169.733 18.6693C171.153 18.6693 172.433 18.9993 173.573 19.6593C174.733 20.3193 175.643 21.2393 176.303 22.4193C176.983 23.5793 177.323 24.9293 177.323 26.4693C177.323 28.0093 176.983 29.3693 176.303 30.5493C175.643 31.7093 174.733 32.6193 173.573 33.2793C172.413 33.9393 171.123 34.2693 169.703 34.2693ZM169.703 30.9393C170.703 30.9393 171.573 30.5693 172.313 29.8293C173.053 29.0693 173.423 27.9493 173.423 26.4693C173.423 24.9893 173.053 23.8793 172.313 23.1393C171.573 22.3793 170.713 21.9993 169.733 21.9993C168.713 21.9993 167.833 22.3793 167.093 23.1393C166.373 23.8793 166.013 24.9893 166.013 26.4693C166.013 27.9493 166.373 29.0693 167.093 29.8293C167.833 30.5693 168.703 30.9393 169.703 30.9393Z" fill="#E4E9EA"/>
<path d="M179.257 33.9093V19.0293H182.677L183.037 21.8193C183.577 20.8593 184.307 20.0993 185.227 19.5393C186.167 18.9593 187.267 18.6693 188.527 18.6693V22.7193H187.447C186.607 22.7193 185.857 22.8493 185.197 23.1093C184.537 23.3693 184.017 23.8193 183.637 24.4593C183.277 25.0993 183.097 25.9893 183.097 27.1293V33.9093H179.257Z" fill="#E4E9EA"/>
<path d="M189.651 40.5093V19.0293H193.071L193.491 21.1593C193.971 20.4993 194.601 19.9193 195.381 19.4193C196.181 18.9193 197.211 18.6693 198.471 18.6693C199.871 18.6693 201.121 19.0093 202.221 19.6893C203.321 20.3693 204.191 21.2993 204.831 22.4793C205.471 23.6593 205.791 24.9993 205.791 26.4993C205.791 27.9993 205.471 29.3393 204.831 30.5193C204.191 31.6793 203.321 32.5993 202.221 33.2793C201.121 33.9393 199.871 34.2693 198.471 34.2693C197.351 34.2693 196.371 34.0593 195.531 33.6393C194.691 33.2193 194.011 32.6293 193.491 31.8693V40.5093H189.651ZM197.661 30.9093C198.881 30.9093 199.891 30.4993 200.691 29.6793C201.491 28.8593 201.891 27.7993 201.891 26.4993C201.891 25.1993 201.491 24.1293 200.691 23.2893C199.891 22.4493 198.881 22.0293 197.661 22.0293C196.421 22.0293 195.401 22.4493 194.601 23.2893C193.821 24.1093 193.431 25.1693 193.431 26.4693C193.431 27.7693 193.821 28.8393 194.601 29.6793C195.401 30.4993 196.421 30.9093 197.661 30.9093Z" fill="#E4E9EA"/>
</g>
<defs>
<filter id="filter0_d_106_41" x="0" y="0" width="210" height="56" filterUnits="userSpaceOnUse" color-interpolation-filters="sRGB">
<feFlood flood-opacity="0" result="BackgroundImageFix"/>
<feColorMatrix in="SourceAlpha" type="matrix" values="0 0 0 0 0 0 0 0 0 0 0 0 0 0 0 0 0 0 127 0" result="hardAlpha"/>
<feOffset dy="4"/>
<feGaussianBlur stdDeviation="2"/>
<feComposite in2="hardAlpha" operator="out"/>
<feColorMatrix type="matrix" values="0 0 0 0 0 0 0 0 0 0 0 0 0 0 0 0 0 0 0.25 0"/>
<feBlend mode="normal" in2="BackgroundImageFix" result="effect1_dropShadow_106_41"/>
<feBlend mode="normal" in="SourceGraphic" in2="effect1_dropShadow_106_41" result="shape"/>
</filter>
</defs>
</svg>
