<svg width="25" height="25" viewBox="0 0 25 25" fill="none" xmlns="http://www.w3.org/2000/svg">
<g clip-path="url(#clip0_124_68)">
<path d="M4.10852 12.2117H21.3902M5.67881 12.2117L6.46566 23.2106M19.8217 12.2117L19.0348 23.2106M17.8931 12.2477C17.8931 10.8838 17.3513 9.57567 16.3868 8.6112C15.4223 7.64673 14.1142 7.10489 12.7502 7.10489C11.3863 7.10489 10.0782 7.64673 9.11369 8.6112C8.14921 9.57567 7.60738 10.8838 7.60738 12.2477M12.7502 6.7106C13.1193 6.72364 13.4872 6.66221 13.8319 6.52998C14.1767 6.39776 14.4913 6.19743 14.757 5.94097C15.0227 5.68451 15.234 5.37716 15.3783 5.03726C15.5227 4.69736 15.597 4.33187 15.597 3.96261C15.597 3.59334 15.5227 3.22785 15.3783 2.88795C15.234 2.54805 15.0227 2.2407 14.757 1.98424C14.4913 1.72778 14.1767 1.52745 13.8319 1.39523C13.4872 1.263 13.1193 1.20157 12.7502 1.21461C12.0382 1.23976 11.3638 1.54029 10.8689 2.05289C10.3741 2.5655 10.0976 3.25014 10.0976 3.96261C10.0976 4.67507 10.3741 5.35971 10.8689 5.87232C11.3638 6.38492 12.0382 6.68545 12.7502 6.7106ZM12.7502 14.9735L13.7617 17.022L16.0211 17.3512L14.3857 18.9455L14.7714 21.1963L12.7502 20.1335L10.7274 21.1963L11.1148 18.9455L9.47938 17.3512L11.7388 17.022L12.7502 14.9735Z" stroke="#073A41" stroke-width="1.5" stroke-linecap="round" stroke-linejoin="round"/>
</g>
<defs>
<clipPath id="clip0_124_68">
<rect width="24" height="24" fill="white" transform="translate(0.750244 0.247559)"/>
</clipPath>
</defs>
</svg>
