<svg width="24" height="24" viewBox="0 0 24 24" fill="none" xmlns="http://www.w3.org/2000/svg">
<path fill-rule="evenodd" clip-rule="evenodd" d="M13.47 5.46995C13.6106 5.3295 13.8012 5.25061 14 5.25061C14.1988 5.25061 14.3894 5.3295 14.53 5.46995L20.53 11.47C20.6705 11.6106 20.7493 11.8012 20.7493 12C20.7493 12.1987 20.6705 12.3893 20.53 12.53L14.53 18.53C14.4613 18.6036 14.3785 18.6627 14.2865 18.7037C14.1945 18.7447 14.0952 18.7668 13.9945 18.7685C13.8938 18.7703 13.7938 18.7518 13.7004 18.7141C13.607 18.6764 13.5222 18.6202 13.451 18.549C13.3797 18.4778 13.3236 18.3929 13.2859 18.2995C13.2482 18.2062 13.2296 18.1061 13.2314 18.0054C13.2332 17.9047 13.2552 17.8054 13.2962 17.7134C13.3372 17.6214 13.3963 17.5386 13.47 17.4699L18.19 12.75H4C3.80109 12.75 3.61032 12.6709 3.46967 12.5303C3.32902 12.3896 3.25 12.1989 3.25 12C3.25 11.801 3.32902 11.6103 3.46967 11.4696C3.61032 11.329 3.80109 11.25 4 11.25H18.19L13.47 6.52995C13.3295 6.38933 13.2507 6.1987 13.2507 5.99995C13.2507 5.8012 13.3295 5.61058 13.47 5.46995Z" fill="white"/>
</svg>
