<svg width="32" height="33" viewBox="0 0 32 33" fill="none" xmlns="http://www.w3.org/2000/svg">
<path d="M28.8121 18.1982L29.1188 14.9502C29.3588 12.4009 29.4788 11.1249 29.0414 10.5982C28.9311 10.4614 28.7948 10.3477 28.6403 10.2637C28.4858 10.1797 28.3163 10.1271 28.1414 10.1089C27.5068 10.0529 26.7108 10.9596 25.1174 12.7729C24.2934 13.7116 23.8814 14.1796 23.4228 14.2529C23.1666 14.2931 22.9042 14.2511 22.6734 14.1329C22.2481 13.9196 21.9668 13.3396 21.4001 12.1809L18.4174 6.06889C17.3481 3.87823 16.8134 2.78223 16.0001 2.78223C15.1868 2.78223 14.6521 3.87823 13.5828 6.06889L10.6001 12.1809C10.0348 13.3409 9.75209 13.9196 9.32676 14.1329C9.09566 14.2502 8.83361 14.2922 8.57743 14.2529C8.11876 14.1796 7.70676 13.7116 6.88276 12.7729C5.28943 10.9596 4.49343 10.0529 3.85876 10.1089C3.68389 10.1271 3.51435 10.1797 3.35989 10.2637C3.20543 10.3477 3.0691 10.4614 2.95876 10.5982C2.52276 11.1249 2.64276 12.4009 2.88276 14.9502L3.18809 18.1982C3.69209 23.5476 3.94276 26.2236 5.52143 27.8356C7.09609 29.4489 9.45876 29.4489 14.1868 29.4489H17.8121C22.5388 29.4489 24.9014 29.4489 26.4788 27.8356C28.0561 26.2222 28.3081 23.5476 28.8121 18.1982Z" stroke="#073A41" stroke-width="1.5"/>
<path d="M14.8615 16.8127C15.3681 15.9034 15.6215 15.4487 16.0001 15.4487C16.3788 15.4487 16.6321 15.9021 17.1388 16.8127L17.2695 17.0474C17.4135 17.3061 17.4855 17.4341 17.5975 17.5194C17.7108 17.6047 17.8508 17.6367 18.1308 17.6994L18.3841 17.7581C19.3681 17.9807 19.8601 18.0914 19.9775 18.4674C20.0948 18.8434 19.7588 19.2367 19.0881 20.0207L18.9148 20.2234C18.7241 20.4461 18.6281 20.5567 18.5855 20.6954C18.5428 20.8341 18.5575 20.9821 18.5855 21.2794L18.6121 21.5501C18.7135 22.5967 18.7641 23.1207 18.4588 23.3527C18.1521 23.5847 17.6908 23.3727 16.7695 22.9487L16.5321 22.8394C16.2695 22.7194 16.1388 22.6581 16.0001 22.6581C15.8615 22.6581 15.7308 22.7194 15.4681 22.8394L15.2308 22.9487C14.3095 23.3741 13.8481 23.5847 13.5415 23.3527C13.2348 23.1207 13.2868 22.5967 13.3881 21.5501L13.4148 21.2794C13.4428 20.9821 13.4575 20.8341 13.4148 20.6954C13.3721 20.5567 13.2761 20.4461 13.0855 20.2234L12.9121 20.0207C12.2415 19.2367 11.9055 18.8447 12.0228 18.4674C12.1401 18.0914 12.6321 17.9807 13.6161 17.7581L13.8695 17.6994C14.1495 17.6367 14.2895 17.6061 14.4028 17.5194C14.5148 17.4341 14.5868 17.3061 14.7308 17.0474L14.8615 16.8127Z" stroke="#073A41" stroke-width="1.5"/>
</svg>
