<svg width="129" height="23" viewBox="0 0 129 23" fill="none" xmlns="http://www.w3.org/2000/svg">
<path d="M28.5349 18.8047C27.4249 18.8047 26.4319 18.5497 25.5559 18.0397C24.6799 17.5297 23.9869 16.7737 23.4769 15.7717C22.9729 14.7697 22.7209 13.5277 22.7209 12.0457C22.7209 10.6537 22.9669 9.45372 23.4589 8.44572C23.9569 7.43172 24.6469 6.65172 25.5289 6.10572C26.4109 5.55972 27.4339 5.28672 28.5979 5.28672C29.4319 5.28672 30.2149 5.44872 30.9469 5.77272C31.6849 6.09672 32.2849 6.58872 32.7469 7.24872C33.2089 7.90272 33.4519 8.73372 33.4759 9.74172H31.3069C31.2709 9.14172 31.1179 8.65872 30.8479 8.29272C30.5779 7.92672 30.2359 7.66272 29.8219 7.50072C29.4139 7.33872 28.9729 7.25772 28.4989 7.25772C27.8509 7.25772 27.2539 7.44072 26.7079 7.80672C26.1679 8.17272 25.7299 8.71272 25.3939 9.42672C25.0639 10.1407 24.8989 11.0167 24.8989 12.0547C24.8989 13.2547 25.0699 14.2027 25.4119 14.8987C25.7539 15.5947 26.2039 16.0927 26.7619 16.3927C27.3199 16.6867 27.9199 16.8337 28.5619 16.8337C29.2399 16.8337 29.7739 16.7287 30.1639 16.5187C30.5539 16.3087 30.8359 16.0297 31.0099 15.6817C31.1899 15.3277 31.2949 14.9467 31.3249 14.5387H33.4939C33.4459 15.4327 33.2239 16.1977 32.8279 16.8337C32.4379 17.4697 31.8829 17.9587 31.1629 18.3007C30.4429 18.6367 29.5669 18.8047 28.5349 18.8047ZM35.3492 18.6157V8.79672H37.5002L37.4732 18.6157H35.3492ZM36.4382 7.33872C36.0482 7.33872 35.7182 7.20372 35.4482 6.93372C35.1782 6.65772 35.0432 6.30672 35.0432 5.88072C35.0432 5.46072 35.1782 5.11872 35.4482 4.85472C35.7182 4.59072 36.0482 4.45872 36.4382 4.45872C36.8162 4.45872 37.1402 4.59072 37.4102 4.85472C37.6862 5.11872 37.8242 5.46072 37.8242 5.88072C37.8242 6.30672 37.6862 6.65772 37.4102 6.93372C37.1402 7.20372 36.8162 7.33872 36.4382 7.33872ZM42.7614 18.7597C41.9814 18.7597 41.3724 18.5617 40.9344 18.1657C40.5024 17.7637 40.2864 17.1907 40.2864 16.4467V11.4787C40.2864 11.2807 40.3284 11.1037 40.4124 10.9477C40.4964 10.7857 40.6194 10.6837 40.7814 10.6417L40.2864 9.18372V8.92272L40.7634 5.97972H42.3834V15.9157C42.3834 16.2637 42.4584 16.5067 42.6084 16.6447C42.7644 16.7827 43.0524 16.8517 43.4724 16.8517C43.7424 16.8517 43.9914 16.8517 44.2194 16.8517C44.4474 16.8457 44.6544 16.8397 44.8404 16.8337V18.6427C44.5284 18.6967 44.1864 18.7297 43.8144 18.7417C43.4424 18.7537 43.0914 18.7597 42.7614 18.7597ZM38.9994 10.6417V8.79672H44.8584V10.6417H38.9994ZM46.5681 22.4947V20.5147H47.3421C47.7741 20.5147 48.1071 20.4757 48.3411 20.3977C48.5811 20.3197 48.7581 20.2027 48.8721 20.0467C48.9921 19.8907 49.0791 19.7017 49.1331 19.4797C49.1991 19.2157 49.2711 19.0177 49.3491 18.8857C49.4331 18.7597 49.5321 18.6697 49.6461 18.6157H48.9441L45.7401 8.79672H48.0981L49.2231 13.2787L50.1321 16.5277H50.2131L51.0321 13.2877L52.1571 8.79672H54.4971L51.3381 18.6157C51.1461 19.2097 50.9391 19.7467 50.7171 20.2267C50.4951 20.7067 50.2371 21.1147 49.9431 21.4507C49.6491 21.7867 49.2891 22.0447 48.8631 22.2247C48.4431 22.4047 47.9361 22.4947 47.3421 22.4947H46.5681ZM64.2108 18.8047C63.1008 18.8047 62.1078 18.5497 61.2318 18.0397C60.3558 17.5297 59.6628 16.7737 59.1528 15.7717C58.6488 14.7697 58.3968 13.5277 58.3968 12.0457C58.3968 10.6537 58.6428 9.45372 59.1348 8.44572C59.6328 7.43172 60.3228 6.65172 61.2048 6.10572C62.0868 5.55972 63.1098 5.28672 64.2738 5.28672C65.1078 5.28672 65.8908 5.44872 66.6228 5.77272C67.3608 6.09672 67.9608 6.58872 68.4228 7.24872C68.8848 7.90272 69.1278 8.73372 69.1518 9.74172H66.9828C66.9468 9.14172 66.7938 8.65872 66.5238 8.29272C66.2538 7.92672 65.9118 7.66272 65.4978 7.50072C65.0898 7.33872 64.6488 7.25772 64.1748 7.25772C63.5268 7.25772 62.9298 7.44072 62.3838 7.80672C61.8438 8.17272 61.4058 8.71272 61.0698 9.42672C60.7398 10.1407 60.5748 11.0167 60.5748 12.0547C60.5748 13.2547 60.7458 14.2027 61.0878 14.8987C61.4298 15.5947 61.8798 16.0927 62.4378 16.3927C62.9958 16.6867 63.5958 16.8337 64.2378 16.8337C64.9158 16.8337 65.4498 16.7287 65.8398 16.5187C66.2298 16.3087 66.5118 16.0297 66.6858 15.6817C66.8658 15.3277 66.9708 14.9467 67.0008 14.5387H69.1698C69.1218 15.4327 68.8998 16.1977 68.5038 16.8337C68.1138 17.4697 67.5588 17.9587 66.8388 18.3007C66.1188 18.6367 65.2428 18.8047 64.2108 18.8047ZM74.7793 18.7507C73.8733 18.7507 73.0843 18.5557 72.4123 18.1657C71.7403 17.7757 71.2183 17.2027 70.8463 16.4467C70.4743 15.6847 70.2883 14.7517 70.2883 13.6477C70.2883 12.6037 70.4833 11.7037 70.8733 10.9477C71.2693 10.1917 71.8093 9.61272 72.4933 9.21072C73.1773 8.80272 73.9513 8.59872 74.8153 8.59872C75.7513 8.59872 76.5523 8.80272 77.2183 9.21072C77.8903 9.61272 78.4063 10.1917 78.7663 10.9477C79.1263 11.7037 79.3063 12.6037 79.3063 13.6477C79.3063 14.7517 79.1053 15.6847 78.7033 16.4467C78.3073 17.2027 77.7673 17.7757 77.0833 18.1657C76.3993 18.5557 75.6313 18.7507 74.7793 18.7507ZM74.8153 16.9417C75.5053 16.9417 76.0693 16.6837 76.5073 16.1677C76.9453 15.6517 77.1643 14.8117 77.1643 13.6477C77.1643 12.5677 76.9513 11.7577 76.5253 11.2177C76.0993 10.6777 75.5173 10.4077 74.7793 10.4077C74.0893 10.4077 73.5253 10.6747 73.0873 11.2087C72.6553 11.7427 72.4393 12.5557 72.4393 13.6477C72.4393 14.7577 72.6583 15.5857 73.0963 16.1317C73.5403 16.6717 74.1133 16.9417 74.8153 16.9417ZM81.1446 18.6157V8.79672H82.9626L83.1966 12.4957L83.0436 11.7487C83.1156 11.2087 83.2566 10.6987 83.4666 10.2187C83.6826 9.73272 84.0036 9.33972 84.4296 9.03972C84.8556 8.73972 85.4256 8.58972 86.1396 8.58972C87.0696 8.58972 87.7896 8.88072 88.2996 9.46272C88.8096 10.0387 89.0646 10.9207 89.0646 12.1087V18.6157H86.9406V12.8467C86.9406 12.2827 86.8836 11.8297 86.7696 11.4877C86.6616 11.1457 86.4846 10.8997 86.2386 10.7497C85.9926 10.5937 85.6656 10.5157 85.2576 10.5157C84.8136 10.5157 84.4086 10.6477 84.0426 10.9117C83.6826 11.1697 83.4246 11.4637 83.2686 11.7937V18.6157H81.1446ZM91.493 18.6157V8.79672H93.311L93.545 12.4957L93.392 11.7487C93.464 11.2087 93.605 10.6987 93.815 10.2187C94.031 9.73272 94.352 9.33972 94.778 9.03972C95.204 8.73972 95.774 8.58972 96.488 8.58972C97.418 8.58972 98.138 8.88072 98.648 9.46272C99.158 10.0387 99.413 10.9207 99.413 12.1087V18.6157H97.289V12.8467C97.289 12.2827 97.232 11.8297 97.118 11.4877C97.01 11.1457 96.833 10.8997 96.587 10.7497C96.341 10.5937 96.014 10.5157 95.606 10.5157C95.162 10.5157 94.757 10.6477 94.391 10.9117C94.031 11.1697 93.773 11.4637 93.617 11.7937V18.6157H91.493ZM105.782 18.7507C104.834 18.7507 104.012 18.5587 103.316 18.1747C102.626 17.7847 102.095 17.2117 101.723 16.4557C101.351 15.6997 101.165 14.7727 101.165 13.6747C101.165 12.6067 101.36 11.6947 101.75 10.9387C102.146 10.1767 102.689 9.59772 103.379 9.20172C104.069 8.79972 104.861 8.59872 105.755 8.59872C106.637 8.59872 107.39 8.77272 108.014 9.12072C108.644 9.46872 109.124 9.98472 109.454 10.6687C109.784 11.3467 109.949 12.1807 109.949 13.1707C109.949 13.3627 109.943 13.5217 109.931 13.6477C109.925 13.7737 109.916 13.9237 109.904 14.0977H103.28C103.334 15.0997 103.58 15.8377 104.018 16.3117C104.456 16.7797 104.993 17.0137 105.629 17.0137C106.223 17.0137 106.676 16.8877 106.988 16.6357C107.306 16.3777 107.51 16.0897 107.6 15.7717H109.652C109.598 16.4017 109.4 16.9417 109.058 17.3917C108.716 17.8357 108.263 18.1747 107.699 18.4087C107.141 18.6367 106.502 18.7507 105.782 18.7507ZM104.252 12.6487H107.834C107.816 11.9287 107.642 11.3737 107.312 10.9837C106.982 10.5877 106.439 10.3897 105.683 10.3897C104.897 10.3897 104.312 10.6537 103.928 11.1817C103.544 11.7037 103.328 12.4267 103.28 13.3507C103.328 13.0807 103.43 12.8977 103.586 12.8017C103.742 12.6997 103.964 12.6487 104.252 12.6487ZM115.896 18.7867C114.924 18.7867 114.09 18.5737 113.394 18.1477C112.698 17.7157 112.164 17.1157 111.792 16.3477C111.426 15.5797 111.243 14.6887 111.243 13.6747C111.243 12.6067 111.432 11.6947 111.81 10.9387C112.188 10.1827 112.713 9.60672 113.385 9.21072C114.057 8.80872 114.831 8.60772 115.707 8.60772C116.577 8.60772 117.306 8.76972 117.894 9.09372C118.488 9.41172 118.932 9.84072 119.226 10.3807C119.52 10.9147 119.655 11.5117 119.631 12.1717H117.588C117.582 11.9077 117.54 11.6677 117.462 11.4517C117.384 11.2297 117.267 11.0437 117.111 10.8937C116.961 10.7377 116.769 10.6177 116.535 10.5337C116.301 10.4497 116.028 10.4077 115.716 10.4077C114.876 10.4017 114.279 10.6897 113.925 11.2717C113.577 11.8537 113.403 12.6397 113.403 13.6297C113.403 14.7577 113.613 15.6007 114.033 16.1587C114.459 16.7107 115.122 16.9897 116.022 16.9957C116.232 16.9957 116.46 16.9357 116.706 16.8157C116.958 16.6897 117.171 16.5127 117.345 16.2847C117.525 16.0507 117.612 15.7717 117.606 15.4477H119.631C119.655 16.1377 119.49 16.7317 119.136 17.2297C118.788 17.7277 118.326 18.1117 117.75 18.3817C117.174 18.6517 116.556 18.7867 115.896 18.7867ZM124.349 18.7597C123.569 18.7597 122.96 18.5617 122.522 18.1657C122.09 17.7637 121.874 17.1907 121.874 16.4467V11.4787C121.874 11.2807 121.916 11.1037 122 10.9477C122.084 10.7857 122.207 10.6837 122.369 10.6417L121.874 9.18372V8.92272L122.351 5.97972H123.971V15.9157C123.971 16.2637 124.046 16.5067 124.196 16.6447C124.352 16.7827 124.64 16.8517 125.06 16.8517C125.33 16.8517 125.579 16.8517 125.807 16.8517C126.035 16.8457 126.242 16.8397 126.428 16.8337V18.6427C126.116 18.6967 125.774 18.7297 125.402 18.7417C125.03 18.7537 124.679 18.7597 124.349 18.7597ZM120.587 10.6417V8.79672H126.446V10.6417H120.587Z" fill="#073A41"/>
<circle cx="9" cy="11.6157" r="9" fill="#E4E9EA"/>
<rect x="2" y="4.61572" width="14" height="14" rx="7" fill="#073A41" fill-opacity="0.5"/>
<rect x="4" y="6.61572" width="10" height="10" rx="5" fill="#073A41" fill-opacity="0.5"/>
<rect x="6" y="8.61572" width="6" height="6" rx="3" fill="white"/>
</svg>
