<svg width="24" height="24" viewBox="0 0 24 24" fill="none" xmlns="http://www.w3.org/2000/svg">
<path d="M13 2H11C6.757 2 4.636 2 3.318 3.318C2 4.636 2 6.758 2 11C2 15.242 2 17.364 3.318 18.682C4.636 20 6.758 20 11 20H13C17.243 20 19.364 20 20.682 18.682C22 17.364 22 15.242 22 11C22 6.758 22 4.636 20.682 3.318C19.364 2 17.242 2 13 2Z" stroke="#073A41" stroke-width="1.5" stroke-linecap="round" stroke-linejoin="round"/>
<path d="M17 15C18 14.47 18 13.615 18 11.906V10.094C18 8.385 18 7.53 17 7M18 22V20M6 22V20M9.5 13C9.76396 13.0013 10.0256 12.9506 10.27 12.8508C10.5143 12.751 10.7366 12.6041 10.9242 12.4184C11.1118 12.2326 11.261 12.0118 11.3632 11.7684C11.4654 11.5251 11.5187 11.264 11.52 11C11.52 9.895 10.616 9 9.5 9M9.5 13C9.23604 13.0013 8.97441 12.9506 8.73004 12.8508C8.48567 12.751 8.26335 12.6041 8.07578 12.4184C7.8882 12.2326 7.73905 12.0118 7.63682 11.7684C7.5346 11.5251 7.48131 11.264 7.48 11C7.48 9.895 8.384 9 9.5 9M9.5 13V15M9.5 9V7M7.75 12L6 13M13 9L11.25 10M11.25 12L13 13M6 9L7.75 10" stroke="#073A41" stroke-width="1.5" stroke-linecap="round" stroke-linejoin="round"/>
</svg>
