<svg width="210" height="54" viewBox="0 0 210 54" fill="none" xmlns="http://www.w3.org/2000/svg">
<g filter="url(#filter0_d_106_37)">
<path opacity="0.8" d="M27.9589 26C27.4508 19.8405 22.2907 15 16 15C9.37258 15 4 20.3726 4 27C4 33.6274 9.37258 39 16 39H34V26H27.9589Z" fill="#E4E9EA"/>
<circle cx="33" cy="24" r="15" fill="#E4E9EA"/>
<path d="M56.896 24.1999C56.896 22.2026 57.2787 20.4573 58.044 18.9639C58.828 17.4519 59.9387 16.2853 61.376 15.4639C62.832 14.6426 64.54 14.2319 66.5 14.2319C68.0307 14.2319 69.4027 14.5306 70.616 15.1279C71.8293 15.7253 72.8093 16.5653 73.556 17.6479C74.3027 18.7306 74.7507 19.9813 74.9 21.3999H70.7C70.4573 20.2799 69.944 19.4026 69.16 18.7679C68.3947 18.1146 67.4333 17.7879 66.276 17.7879C64.708 17.7879 63.4667 18.3759 62.552 19.5519C61.6373 20.7279 61.18 22.2773 61.18 24.1999C61.18 26.1039 61.6373 27.6533 62.552 28.8479C63.4667 30.0239 64.708 30.6119 66.276 30.6119C67.4333 30.6119 68.3947 30.2946 69.16 29.6599C69.944 29.0066 70.4573 28.1199 70.7 26.9999H74.9C74.7507 28.4186 74.3027 29.6693 73.556 30.7519C72.8093 31.8346 71.8293 32.6746 70.616 33.2719C69.4027 33.8693 68.0307 34.1679 66.5 34.1679C64.54 34.1679 62.832 33.7573 61.376 32.9359C59.9387 32.1146 58.828 30.9573 58.044 29.4639C57.2787 27.9519 56.896 26.1973 56.896 24.1999Z" fill="#E4E9EA"/>
<path d="M75.9122 14.3999H79.8602V33.9999H75.9122V14.3999Z" fill="#E4E9EA"/>
<path d="M88.5194 34.1679C87.0074 34.1679 85.6727 33.8693 84.5154 33.2719C83.3767 32.6559 82.49 31.7879 81.8554 30.6679C81.2394 29.5479 80.9314 28.2599 80.9314 26.8039C80.9314 25.3479 81.2394 24.0599 81.8554 22.9399C82.49 21.8199 83.3767 20.9613 84.5154 20.3639C85.6727 19.7479 87.0074 19.4399 88.5194 19.4399C90.0314 19.4399 91.3567 19.7479 92.4954 20.3639C93.6527 20.9613 94.5394 21.8199 95.1554 22.9399C95.79 24.0599 96.1074 25.3479 96.1074 26.8039C96.1074 28.2786 95.79 29.5759 95.1554 30.6959C94.5394 31.7973 93.6527 32.6559 92.4954 33.2719C91.3567 33.8693 90.0314 34.1679 88.5194 34.1679ZM88.5194 30.9479C89.6207 30.9479 90.4887 30.5653 91.1234 29.7999C91.7767 29.0346 92.1034 28.0359 92.1034 26.8039C92.1034 25.5719 91.7767 24.5733 91.1234 23.8079C90.4887 23.0426 89.6207 22.6599 88.5194 22.6599C87.4367 22.6599 86.5687 23.0426 85.9154 23.8079C85.2807 24.5733 84.9634 25.5719 84.9634 26.8039C84.9634 28.0359 85.2807 29.0346 85.9154 29.7999C86.5687 30.5653 87.4367 30.9479 88.5194 30.9479Z" fill="#E4E9EA"/>
<path d="M110.712 19.6079V33.9999H107.212L106.848 32.2639C106.344 32.8613 105.756 33.3279 105.084 33.6639C104.412 33.9999 103.591 34.1679 102.62 34.1679C100.94 34.1679 99.5684 33.6546 98.5044 32.6279C97.4404 31.5826 96.9084 29.8466 96.9084 27.4199V19.6079H100.856V26.9439C100.856 28.2506 101.08 29.2399 101.528 29.9119C101.995 30.5653 102.704 30.8919 103.656 30.8919C104.646 30.8919 105.411 30.5279 105.952 29.7999C106.494 29.0533 106.764 28.0173 106.764 26.6919V19.6079H110.712Z" fill="#E4E9EA"/>
<path d="M126.729 14.3999V33.9999H123.285L122.893 32.0119C121.792 33.4493 120.299 34.1679 118.413 34.1679C117.144 34.1679 116.005 33.8693 114.997 33.2719C113.989 32.6559 113.196 31.7879 112.617 30.6679C112.057 29.5479 111.777 28.2506 111.777 26.7759C111.777 25.3199 112.057 24.0413 112.617 22.9399C113.196 21.8199 113.989 20.9613 114.997 20.3639C116.024 19.7479 117.172 19.4399 118.441 19.4399C120.308 19.4399 121.755 20.0933 122.781 21.3999V14.3999H126.729ZM119.337 30.9479C120.401 30.9479 121.251 30.5746 121.885 29.8279C122.52 29.0626 122.837 28.0639 122.837 26.8319C122.837 25.5813 122.52 24.5733 121.885 23.8079C121.251 23.0426 120.401 22.6599 119.337 22.6599C118.273 22.6599 117.415 23.0426 116.761 23.8079C116.127 24.5733 115.809 25.5719 115.809 26.8039C115.809 28.0359 116.127 29.0346 116.761 29.7999C117.415 30.5653 118.273 30.9479 119.337 30.9479Z" fill="#E4E9EA"/>
<path d="M127.242 14.3999L131.582 14.3719L135.194 28.7079L139.03 14.3999H142.81L146.534 28.7079L150.23 14.3999H154.486L149.054 33.9999H144.21L140.822 20.9799L137.518 33.9999H132.674L127.242 14.3999Z" fill="#E4E9EA"/>
<path d="M167.66 30.6679V33.9999H165.644C163.833 33.9999 162.946 33.2159 162.984 31.6479C162.461 32.4693 161.817 33.0946 161.052 33.5239C160.287 33.9533 159.363 34.1679 158.28 34.1679C156.675 34.1679 155.377 33.8039 154.388 33.0759C153.417 32.3293 152.932 31.2839 152.932 29.9399C152.932 28.4093 153.492 27.2333 154.612 26.4119C155.75 25.5719 157.393 25.1519 159.54 25.1519H162.396V24.4519C162.396 23.7986 162.153 23.2853 161.668 22.9119C161.183 22.5199 160.529 22.3239 159.708 22.3239C158.98 22.3239 158.382 22.4826 157.916 22.7999C157.449 23.1173 157.169 23.5466 157.076 24.0879H153.268C153.399 22.6133 154.052 21.4746 155.228 20.6719C156.404 19.8506 157.963 19.4399 159.904 19.4399C161.939 19.4399 163.507 19.8879 164.608 20.7839C165.728 21.6799 166.288 22.9773 166.288 24.6759V29.7439C166.288 30.0986 166.363 30.3413 166.512 30.4719C166.661 30.6026 166.895 30.6679 167.212 30.6679H167.66ZM162.396 27.7839H159.512C158.691 27.7839 158.047 27.9519 157.58 28.2879C157.132 28.6053 156.908 29.0626 156.908 29.6599C156.908 30.1639 157.095 30.5653 157.468 30.8639C157.86 31.1626 158.383 31.3119 159.036 31.3119C160.063 31.3119 160.874 31.0226 161.472 30.4439C162.069 29.8466 162.377 29.0533 162.396 28.0639V27.7839Z" fill="#E4E9EA"/>
<path d="M168.991 22.9399H166.611V19.6079H168.991V15.5759H172.939V19.6079H176.215V22.9399H172.939V29.2399C172.939 29.7439 173.042 30.1079 173.247 30.3319C173.471 30.5559 173.835 30.6679 174.339 30.6679H176.383V33.9999H173.107C170.363 33.9999 168.991 32.6279 168.991 29.8839V22.9399Z" fill="#E4E9EA"/>
<path d="M190.541 28.5399C190.28 30.2946 189.533 31.6759 188.301 32.6839C187.088 33.6733 185.51 34.1679 183.569 34.1679C182.076 34.1679 180.769 33.8693 179.649 33.2719C178.529 32.6559 177.661 31.7879 177.045 30.6679C176.448 29.5479 176.149 28.2599 176.149 26.8039C176.149 25.3293 176.448 24.0413 177.045 22.9399C177.661 21.8199 178.529 20.9613 179.649 20.3639C180.788 19.7479 182.104 19.4399 183.597 19.4399C185.52 19.4399 187.088 19.9346 188.301 20.9239C189.514 21.8946 190.261 23.2479 190.541 24.9839H186.453C186.285 24.2746 185.949 23.7146 185.445 23.3039C184.941 22.8746 184.316 22.6599 183.569 22.6599C182.542 22.6599 181.721 23.0426 181.105 23.8079C180.489 24.5733 180.181 25.5719 180.181 26.8039C180.181 28.0359 180.489 29.0346 181.105 29.7999C181.721 30.5653 182.542 30.9479 183.569 30.9479C184.334 30.9479 184.969 30.7333 185.473 30.3039C185.996 29.8746 186.332 29.2866 186.481 28.5399H190.541Z" fill="#E4E9EA"/>
<path d="M199.762 19.4399C201.46 19.4399 202.851 19.9626 203.934 21.0079C205.035 22.0533 205.586 23.7799 205.586 26.1879V33.9999H201.638V26.3559C201.638 25.1613 201.395 24.2559 200.91 23.6399C200.424 23.0053 199.696 22.6879 198.726 22.6879C197.718 22.6879 196.924 23.0333 196.346 23.7239C195.786 24.4146 195.506 25.3759 195.506 26.6079V33.9999H191.558V14.3999H195.506V21.3719C196.57 20.0839 197.988 19.4399 199.762 19.4399Z" fill="#E4E9EA"/>
</g>
<defs>
<filter id="filter0_d_106_37" x="0" y="0" width="210" height="56" filterUnits="userSpaceOnUse" color-interpolation-filters="sRGB">
<feFlood flood-opacity="0" result="BackgroundImageFix"/>
<feColorMatrix in="SourceAlpha" type="matrix" values="0 0 0 0 0 0 0 0 0 0 0 0 0 0 0 0 0 0 127 0" result="hardAlpha"/>
<feOffset dy="4"/>
<feGaussianBlur stdDeviation="2"/>
<feComposite in2="hardAlpha" operator="out"/>
<feColorMatrix type="matrix" values="0 0 0 0 0 0 0 0 0 0 0 0 0 0 0 0 0 0 0.25 0"/>
<feBlend mode="normal" in2="BackgroundImageFix" result="effect1_dropShadow_106_37"/>
<feBlend mode="normal" in="SourceGraphic" in2="effect1_dropShadow_106_37" result="shape"/>
</filter>
</defs>
</svg>
