<svg width="196" height="54" viewBox="0 0 196 54" fill="none" xmlns="http://www.w3.org/2000/svg">
<g filter="url(#filter0_d_106_39)">
<path d="M24.58 4C20.94 4 18 6.90426 18 10.5C18 14.0681 20.94 16.9723 24.552 17C23.656 16.9723 22.956 16.2532 22.956 15.3681C22.956 14.483 23.684 13.7362 24.608 13.7362C28.528 13.7362 37.236 13.7362 41.072 13.7362C43.788 13.7362 46 11.5511 46 8.86812C46 6.1851 43.788 4 41.072 4L24.58 4Z" fill="#E4E9EA"/>
<path opacity="0.9" d="M16.58 17C12.94 17 10 19.9043 10 23.5C10 27.0681 12.94 29.9723 16.552 30C15.656 29.9723 14.956 29.2532 14.956 28.3681C14.956 27.483 15.684 26.7362 16.608 26.7362C20.528 26.7362 29.236 26.7362 33.072 26.7362C35.788 26.7362 38 24.5511 38 21.8681C38 19.1851 35.788 17 33.072 17L16.58 17Z" fill="#E4E9EA"/>
<path opacity="0.8" d="M11.05 30C7.15 30 4 33.1277 4 37C4 40.8426 7.15 43.9702 11.02 44C10.06 43.9702 9.31 43.1958 9.31 42.2425C9.31 41.2894 10.09 40.4851 11.08 40.4851C15.28 40.4851 24.61 40.4851 28.72 40.4851C31.63 40.4851 34 38.1319 34 35.2426C34 32.3532 31.63 30 28.72 30L11.05 30Z" fill="#E4E9EA"/>
<path d="M55.98 33.9093V12.9093H69.48V16.5093H59.94V21.5193H68.64V25.1193H59.94V30.3093H69.66V33.9093H55.98Z" fill="#E4E9EA"/>
<path d="M71.2113 39.9093V19.0293H74.9313V20.8293H75.4713C75.8113 20.2493 76.3413 19.7393 77.0613 19.2993C77.7813 18.8393 78.8113 18.6093 80.1513 18.6093C81.3513 18.6093 82.4613 18.9093 83.4813 19.5093C84.5013 20.0893 85.3213 20.9493 85.9413 22.0893C86.5613 23.2293 86.8713 24.6093 86.8713 26.2293V26.7093C86.8713 28.3293 86.5613 29.7093 85.9413 30.8493C85.3213 31.9893 84.5013 32.8593 83.4813 33.4593C82.4613 34.0393 81.3513 34.3293 80.1513 34.3293C79.2513 34.3293 78.4913 34.2193 77.8713 33.9993C77.2713 33.7993 76.7813 33.5393 76.4013 33.2193C76.0413 32.8793 75.7513 32.5393 75.5313 32.1993H74.9913V39.9093H71.2113ZM79.0113 31.0293C80.1913 31.0293 81.1613 30.6593 81.9213 29.9193C82.7013 29.1593 83.0913 28.0593 83.0913 26.6193V26.3193C83.0913 24.8793 82.7013 23.7893 81.9213 23.0493C81.1413 22.2893 80.1713 21.9093 79.0113 21.9093C77.8513 21.9093 76.8813 22.2893 76.1013 23.0493C75.3213 23.7893 74.9313 24.8793 74.9313 26.3193V26.6193C74.9313 28.0593 75.3213 29.1593 76.1013 29.9193C76.8813 30.6593 77.8513 31.0293 79.0113 31.0293Z" fill="#E4E9EA"/>
<path d="M88.8422 33.9093V19.0293H92.6222V33.9093H88.8422ZM90.7322 17.2893C90.0522 17.2893 89.4722 17.0693 88.9922 16.6293C88.5322 16.1893 88.3022 15.6093 88.3022 14.8893C88.3022 14.1693 88.5322 13.5893 88.9922 13.1493C89.4722 12.7093 90.0522 12.4893 90.7322 12.4893C91.4322 12.4893 92.0122 12.7093 92.4722 13.1493C92.9322 13.5893 93.1622 14.1693 93.1622 14.8893C93.1622 15.6093 92.9322 16.1893 92.4722 16.6293C92.0122 17.0693 91.4322 17.2893 90.7322 17.2893Z" fill="#E4E9EA"/>
<path d="M102.301 34.3293C100.861 34.3293 99.5509 34.0293 98.3709 33.4293C97.2109 32.8293 96.2909 31.9593 95.6109 30.8193C94.9309 29.6793 94.5909 28.2993 94.5909 26.6793V26.2593C94.5909 24.6393 94.9309 23.2593 95.6109 22.1193C96.2909 20.9793 97.2109 20.1093 98.3709 19.5093C99.5509 18.9093 100.861 18.6093 102.301 18.6093C103.721 18.6093 104.941 18.8593 105.961 19.3593C106.981 19.8593 107.801 20.5493 108.421 21.4293C109.061 22.2893 109.481 23.2693 109.681 24.3693L106.021 25.1493C105.941 24.5493 105.761 24.0093 105.481 23.5293C105.201 23.0493 104.801 22.6693 104.281 22.3893C103.781 22.1093 103.151 21.9693 102.391 21.9693C101.631 21.9693 100.941 22.1393 100.321 22.4793C99.7209 22.7993 99.2409 23.2893 98.8809 23.9493C98.5409 24.5893 98.3709 25.3793 98.3709 26.3193V26.6193C98.3709 27.5593 98.5409 28.3593 98.8809 29.0193C99.2409 29.6593 99.7209 30.1493 100.321 30.4893C100.941 30.8093 101.631 30.9693 102.391 30.9693C103.531 30.9693 104.391 30.6793 104.971 30.0993C105.571 29.4993 105.951 28.7193 106.111 27.7593L109.771 28.6293C109.511 29.6893 109.061 30.6593 108.421 31.5393C107.801 32.3993 106.981 33.0793 105.961 33.5793C104.941 34.0793 103.721 34.3293 102.301 34.3293Z" fill="#E4E9EA"/>
<path d="M117.059 34.1493C115.899 34.1493 114.879 33.8893 113.999 33.3693C113.139 32.8293 112.469 32.0893 111.989 31.1493C111.509 30.2093 111.269 29.1293 111.269 27.9093V19.0293H115.049V27.6093C115.049 28.7293 115.319 29.5693 115.859 30.1293C116.419 30.6893 117.209 30.9693 118.229 30.9693C119.389 30.9693 120.289 30.5893 120.929 29.8293C121.569 29.0493 121.889 27.9693 121.889 26.5893V19.0293H125.669V33.9093H121.949V31.9593H121.409C121.169 32.4593 120.719 32.9493 120.059 33.4293C119.399 33.9093 118.399 34.1493 117.059 34.1493Z" fill="#E4E9EA"/>
<path d="M128.375 33.9093V19.0293H132.095V20.7093H132.635C132.855 20.1093 133.215 19.6693 133.715 19.3893C134.235 19.1093 134.835 18.9693 135.515 18.9693H137.315V22.3293H135.455C134.495 22.3293 133.705 22.5893 133.085 23.1093C132.465 23.6093 132.155 24.3893 132.155 25.4493V33.9093H128.375Z" fill="#E4E9EA"/>
<path d="M138.77 33.9093V19.0293H142.55V33.9093H138.77ZM140.66 17.2893C139.98 17.2893 139.4 17.0693 138.92 16.6293C138.46 16.1893 138.23 15.6093 138.23 14.8893C138.23 14.1693 138.46 13.5893 138.92 13.1493C139.4 12.7093 139.98 12.4893 140.66 12.4893C141.36 12.4893 141.94 12.7093 142.4 13.1493C142.86 13.5893 143.09 14.1693 143.09 14.8893C143.09 15.6093 142.86 16.1893 142.4 16.6293C141.94 17.0693 141.36 17.2893 140.66 17.2893Z" fill="#E4E9EA"/>
<path d="M152.319 34.3293C150.839 34.3293 149.509 34.0293 148.329 33.4293C147.149 32.8293 146.219 31.9593 145.539 30.8193C144.859 29.6793 144.519 28.3093 144.519 26.7093V26.2293C144.519 24.6293 144.859 23.2593 145.539 22.1193C146.219 20.9793 147.149 20.1093 148.329 19.5093C149.509 18.9093 150.839 18.6093 152.319 18.6093C153.799 18.6093 155.129 18.9093 156.309 19.5093C157.489 20.1093 158.419 20.9793 159.099 22.1193C159.779 23.2593 160.119 24.6293 160.119 26.2293V26.7093C160.119 28.3093 159.779 29.6793 159.099 30.8193C158.419 31.9593 157.489 32.8293 156.309 33.4293C155.129 34.0293 153.799 34.3293 152.319 34.3293ZM152.319 30.9693C153.479 30.9693 154.439 30.5993 155.199 29.8593C155.959 29.0993 156.339 28.0193 156.339 26.6193V26.3193C156.339 24.9193 155.959 23.8493 155.199 23.1093C154.459 22.3493 153.499 21.9693 152.319 21.9693C151.159 21.9693 150.199 22.3493 149.439 23.1093C148.679 23.8493 148.299 24.9193 148.299 26.3193V26.6193C148.299 28.0193 148.679 29.0993 149.439 29.8593C150.199 30.5993 151.159 30.9693 152.319 30.9693Z" fill="#E4E9EA"/>
<path d="M167.778 34.1493C166.618 34.1493 165.598 33.8893 164.718 33.3693C163.858 32.8293 163.188 32.0893 162.708 31.1493C162.228 30.2093 161.988 29.1293 161.988 27.9093V19.0293H165.768V27.6093C165.768 28.7293 166.038 29.5693 166.578 30.1293C167.138 30.6893 167.928 30.9693 168.948 30.9693C170.108 30.9693 171.008 30.5893 171.648 29.8293C172.288 29.0493 172.608 27.9693 172.608 26.5893V19.0293H176.388V33.9093H172.668V31.9593H172.128C171.888 32.4593 171.438 32.9493 170.778 33.4293C170.118 33.9093 169.118 34.1493 167.778 34.1493Z" fill="#E4E9EA"/>
<path d="M185.274 34.3293C183.334 34.3293 181.744 33.9093 180.504 33.0693C179.264 32.2293 178.514 31.0293 178.254 29.4693L181.734 28.5693C181.874 29.2693 182.104 29.8193 182.424 30.2193C182.764 30.6193 183.174 30.9093 183.654 31.0893C184.154 31.2493 184.694 31.3293 185.274 31.3293C186.154 31.3293 186.804 31.1793 187.224 30.8793C187.644 30.5593 187.854 30.1693 187.854 29.7093C187.854 29.2493 187.654 28.8993 187.254 28.6593C186.854 28.3993 186.214 28.1893 185.334 28.0293L184.494 27.8793C183.454 27.6793 182.504 27.4093 181.644 27.0693C180.784 26.7093 180.094 26.2193 179.574 25.5993C179.054 24.9793 178.794 24.1793 178.794 23.1993C178.794 21.7193 179.334 20.5893 180.414 19.8093C181.494 19.0093 182.914 18.6093 184.674 18.6093C186.334 18.6093 187.714 18.9793 188.814 19.7193C189.914 20.4593 190.634 21.4293 190.974 22.6293L187.464 23.7093C187.304 22.9493 186.974 22.4093 186.474 22.0893C185.994 21.7693 185.394 21.6093 184.674 21.6093C183.954 21.6093 183.404 21.7393 183.024 21.9993C182.644 22.2393 182.454 22.5793 182.454 23.0193C182.454 23.4993 182.654 23.8593 183.054 24.0993C183.454 24.3193 183.994 24.4893 184.674 24.6093L185.514 24.7593C186.634 24.9593 187.644 25.2293 188.544 25.5693C189.464 25.8893 190.184 26.3593 190.704 26.9793C191.244 27.5793 191.514 28.3993 191.514 29.4393C191.514 30.9993 190.944 32.2093 189.804 33.0693C188.684 33.9093 187.174 34.3293 185.274 34.3293Z" fill="#E4E9EA"/>
</g>
<defs>
<filter id="filter0_d_106_39" x="-1" y="0" width="197" height="56" filterUnits="userSpaceOnUse" color-interpolation-filters="sRGB">
<feFlood flood-opacity="0" result="BackgroundImageFix"/>
<feColorMatrix in="SourceAlpha" type="matrix" values="0 0 0 0 0 0 0 0 0 0 0 0 0 0 0 0 0 0 127 0" result="hardAlpha"/>
<feOffset dy="4"/>
<feGaussianBlur stdDeviation="2"/>
<feComposite in2="hardAlpha" operator="out"/>
<feColorMatrix type="matrix" values="0 0 0 0 0 0 0 0 0 0 0 0 0 0 0 0 0 0 0.25 0"/>
<feBlend mode="normal" in2="BackgroundImageFix" result="effect1_dropShadow_106_39"/>
<feBlend mode="normal" in="SourceGraphic" in2="effect1_dropShadow_106_39" result="shape"/>
</filter>
</defs>
</svg>
