<svg width="129" height="22" viewBox="0 0 129 22" fill="none" xmlns="http://www.w3.org/2000/svg">
<path d="M28.5349 18.189C27.4249 18.189 26.4319 17.934 25.5559 17.424C24.6799 16.914 23.9869 16.158 23.4769 15.156C22.9729 14.154 22.7209 12.912 22.7209 11.43C22.7209 10.038 22.9669 8.838 23.4589 7.83C23.9569 6.816 24.6469 6.036 25.5289 5.49C26.4109 4.944 27.4339 4.671 28.5979 4.671C29.4319 4.671 30.2149 4.833 30.9469 5.157C31.6849 5.481 32.2849 5.973 32.7469 6.633C33.2089 7.287 33.4519 8.118 33.4759 9.126H31.3069C31.2709 8.526 31.1179 8.043 30.8479 7.677C30.5779 7.311 30.2359 7.047 29.8219 6.885C29.4139 6.723 28.9729 6.642 28.4989 6.642C27.8509 6.642 27.2539 6.825 26.7079 7.191C26.1679 7.557 25.7299 8.097 25.3939 8.811C25.0639 9.525 24.8989 10.401 24.8989 11.439C24.8989 12.639 25.0699 13.587 25.4119 14.283C25.7539 14.979 26.2039 15.477 26.7619 15.777C27.3199 16.071 27.9199 16.218 28.5619 16.218C29.2399 16.218 29.7739 16.113 30.1639 15.903C30.5539 15.693 30.8359 15.414 31.0099 15.066C31.1899 14.712 31.2949 14.331 31.3249 13.923H33.4939C33.4459 14.817 33.2239 15.582 32.8279 16.218C32.4379 16.854 31.8829 17.343 31.1629 17.685C30.4429 18.021 29.5669 18.189 28.5349 18.189ZM35.3492 18V8.181H37.5002L37.4732 18H35.3492ZM36.4382 6.723C36.0482 6.723 35.7182 6.588 35.4482 6.318C35.1782 6.042 35.0432 5.691 35.0432 5.265C35.0432 4.845 35.1782 4.503 35.4482 4.239C35.7182 3.975 36.0482 3.843 36.4382 3.843C36.8162 3.843 37.1402 3.975 37.4102 4.239C37.6862 4.503 37.8242 4.845 37.8242 5.265C37.8242 5.691 37.6862 6.042 37.4102 6.318C37.1402 6.588 36.8162 6.723 36.4382 6.723ZM42.7614 18.144C41.9814 18.144 41.3724 17.946 40.9344 17.55C40.5024 17.148 40.2864 16.575 40.2864 15.831V10.863C40.2864 10.665 40.3284 10.488 40.4124 10.332C40.4964 10.17 40.6194 10.068 40.7814 10.026L40.2864 8.568V8.307L40.7634 5.364H42.3834V15.3C42.3834 15.648 42.4584 15.891 42.6084 16.029C42.7644 16.167 43.0524 16.236 43.4724 16.236C43.7424 16.236 43.9914 16.236 44.2194 16.236C44.4474 16.23 44.6544 16.224 44.8404 16.218V18.027C44.5284 18.081 44.1864 18.114 43.8144 18.126C43.4424 18.138 43.0914 18.144 42.7614 18.144ZM38.9994 10.026V8.181H44.8584V10.026H38.9994ZM46.5681 21.879V19.899H47.3421C47.7741 19.899 48.1071 19.86 48.3411 19.782C48.5811 19.704 48.7581 19.587 48.8721 19.431C48.9921 19.275 49.0791 19.086 49.1331 18.864C49.1991 18.6 49.2711 18.402 49.3491 18.27C49.4331 18.144 49.5321 18.054 49.6461 18H48.9441L45.7401 8.181H48.0981L49.2231 12.663L50.1321 15.912H50.2131L51.0321 12.672L52.1571 8.181H54.4971L51.3381 18C51.1461 18.594 50.9391 19.131 50.7171 19.611C50.4951 20.091 50.2371 20.499 49.9431 20.835C49.6491 21.171 49.2891 21.429 48.8631 21.609C48.4431 21.789 47.9361 21.879 47.3421 21.879H46.5681ZM64.2108 18.189C63.1008 18.189 62.1078 17.934 61.2318 17.424C60.3558 16.914 59.6628 16.158 59.1528 15.156C58.6488 14.154 58.3968 12.912 58.3968 11.43C58.3968 10.038 58.6428 8.838 59.1348 7.83C59.6328 6.816 60.3228 6.036 61.2048 5.49C62.0868 4.944 63.1098 4.671 64.2738 4.671C65.1078 4.671 65.8908 4.833 66.6228 5.157C67.3608 5.481 67.9608 5.973 68.4228 6.633C68.8848 7.287 69.1278 8.118 69.1518 9.126H66.9828C66.9468 8.526 66.7938 8.043 66.5238 7.677C66.2538 7.311 65.9118 7.047 65.4978 6.885C65.0898 6.723 64.6488 6.642 64.1748 6.642C63.5268 6.642 62.9298 6.825 62.3838 7.191C61.8438 7.557 61.4058 8.097 61.0698 8.811C60.7398 9.525 60.5748 10.401 60.5748 11.439C60.5748 12.639 60.7458 13.587 61.0878 14.283C61.4298 14.979 61.8798 15.477 62.4378 15.777C62.9958 16.071 63.5958 16.218 64.2378 16.218C64.9158 16.218 65.4498 16.113 65.8398 15.903C66.2298 15.693 66.5118 15.414 66.6858 15.066C66.8658 14.712 66.9708 14.331 67.0008 13.923H69.1698C69.1218 14.817 68.8998 15.582 68.5038 16.218C68.1138 16.854 67.5588 17.343 66.8388 17.685C66.1188 18.021 65.2428 18.189 64.2108 18.189ZM74.7793 18.135C73.8733 18.135 73.0843 17.94 72.4123 17.55C71.7403 17.16 71.2183 16.587 70.8463 15.831C70.4743 15.069 70.2883 14.136 70.2883 13.032C70.2883 11.988 70.4833 11.088 70.8733 10.332C71.2693 9.576 71.8093 8.997 72.4933 8.595C73.1773 8.187 73.9513 7.983 74.8153 7.983C75.7513 7.983 76.5523 8.187 77.2183 8.595C77.8903 8.997 78.4063 9.576 78.7663 10.332C79.1263 11.088 79.3063 11.988 79.3063 13.032C79.3063 14.136 79.1053 15.069 78.7033 15.831C78.3073 16.587 77.7673 17.16 77.0833 17.55C76.3993 17.94 75.6313 18.135 74.7793 18.135ZM74.8153 16.326C75.5053 16.326 76.0693 16.068 76.5073 15.552C76.9453 15.036 77.1643 14.196 77.1643 13.032C77.1643 11.952 76.9513 11.142 76.5253 10.602C76.0993 10.062 75.5173 9.792 74.7793 9.792C74.0893 9.792 73.5253 10.059 73.0873 10.593C72.6553 11.127 72.4393 11.94 72.4393 13.032C72.4393 14.142 72.6583 14.97 73.0963 15.516C73.5403 16.056 74.1133 16.326 74.8153 16.326ZM81.1446 18V8.181H82.9626L83.1966 11.88L83.0436 11.133C83.1156 10.593 83.2566 10.083 83.4666 9.603C83.6826 9.117 84.0036 8.724 84.4296 8.424C84.8556 8.124 85.4256 7.974 86.1396 7.974C87.0696 7.974 87.7896 8.265 88.2996 8.847C88.8096 9.423 89.0646 10.305 89.0646 11.493V18H86.9406V12.231C86.9406 11.667 86.8836 11.214 86.7696 10.872C86.6616 10.53 86.4846 10.284 86.2386 10.134C85.9926 9.978 85.6656 9.9 85.2576 9.9C84.8136 9.9 84.4086 10.032 84.0426 10.296C83.6826 10.554 83.4246 10.848 83.2686 11.178V18H81.1446ZM91.493 18V8.181H93.311L93.545 11.88L93.392 11.133C93.464 10.593 93.605 10.083 93.815 9.603C94.031 9.117 94.352 8.724 94.778 8.424C95.204 8.124 95.774 7.974 96.488 7.974C97.418 7.974 98.138 8.265 98.648 8.847C99.158 9.423 99.413 10.305 99.413 11.493V18H97.289V12.231C97.289 11.667 97.232 11.214 97.118 10.872C97.01 10.53 96.833 10.284 96.587 10.134C96.341 9.978 96.014 9.9 95.606 9.9C95.162 9.9 94.757 10.032 94.391 10.296C94.031 10.554 93.773 10.848 93.617 11.178V18H91.493ZM105.782 18.135C104.834 18.135 104.012 17.943 103.316 17.559C102.626 17.169 102.095 16.596 101.723 15.84C101.351 15.084 101.165 14.157 101.165 13.059C101.165 11.991 101.36 11.079 101.75 10.323C102.146 9.561 102.689 8.982 103.379 8.586C104.069 8.184 104.861 7.983 105.755 7.983C106.637 7.983 107.39 8.157 108.014 8.505C108.644 8.853 109.124 9.369 109.454 10.053C109.784 10.731 109.949 11.565 109.949 12.555C109.949 12.747 109.943 12.906 109.931 13.032C109.925 13.158 109.916 13.308 109.904 13.482H103.28C103.334 14.484 103.58 15.222 104.018 15.696C104.456 16.164 104.993 16.398 105.629 16.398C106.223 16.398 106.676 16.272 106.988 16.02C107.306 15.762 107.51 15.474 107.6 15.156H109.652C109.598 15.786 109.4 16.326 109.058 16.776C108.716 17.22 108.263 17.559 107.699 17.793C107.141 18.021 106.502 18.135 105.782 18.135ZM104.252 12.033H107.834C107.816 11.313 107.642 10.758 107.312 10.368C106.982 9.972 106.439 9.774 105.683 9.774C104.897 9.774 104.312 10.038 103.928 10.566C103.544 11.088 103.328 11.811 103.28 12.735C103.328 12.465 103.43 12.282 103.586 12.186C103.742 12.084 103.964 12.033 104.252 12.033ZM115.896 18.171C114.924 18.171 114.09 17.958 113.394 17.532C112.698 17.1 112.164 16.5 111.792 15.732C111.426 14.964 111.243 14.073 111.243 13.059C111.243 11.991 111.432 11.079 111.81 10.323C112.188 9.567 112.713 8.991 113.385 8.595C114.057 8.193 114.831 7.992 115.707 7.992C116.577 7.992 117.306 8.154 117.894 8.478C118.488 8.796 118.932 9.225 119.226 9.765C119.52 10.299 119.655 10.896 119.631 11.556H117.588C117.582 11.292 117.54 11.052 117.462 10.836C117.384 10.614 117.267 10.428 117.111 10.278C116.961 10.122 116.769 10.002 116.535 9.918C116.301 9.834 116.028 9.792 115.716 9.792C114.876 9.786 114.279 10.074 113.925 10.656C113.577 11.238 113.403 12.024 113.403 13.014C113.403 14.142 113.613 14.985 114.033 15.543C114.459 16.095 115.122 16.374 116.022 16.38C116.232 16.38 116.46 16.32 116.706 16.2C116.958 16.074 117.171 15.897 117.345 15.669C117.525 15.435 117.612 15.156 117.606 14.832H119.631C119.655 15.522 119.49 16.116 119.136 16.614C118.788 17.112 118.326 17.496 117.75 17.766C117.174 18.036 116.556 18.171 115.896 18.171ZM124.349 18.144C123.569 18.144 122.96 17.946 122.522 17.55C122.09 17.148 121.874 16.575 121.874 15.831V10.863C121.874 10.665 121.916 10.488 122 10.332C122.084 10.17 122.207 10.068 122.369 10.026L121.874 8.568V8.307L122.351 5.364H123.971V15.3C123.971 15.648 124.046 15.891 124.196 16.029C124.352 16.167 124.64 16.236 125.06 16.236C125.33 16.236 125.579 16.236 125.807 16.236C126.035 16.23 126.242 16.224 126.428 16.218V18.027C126.116 18.081 125.774 18.114 125.402 18.126C125.03 18.138 124.679 18.144 124.349 18.144ZM120.587 10.026V8.181H126.446V10.026H120.587Z" fill="white"/>
<circle cx="9" cy="11" r="9" fill="#E4E9EA" fill-opacity="0.2"/>
<rect x="2" y="4" width="14" height="14" rx="7" fill="#A0C3C8" fill-opacity="0.7"/>
<rect x="4" y="6" width="10" height="10" rx="5" fill="#A0C3C8" fill-opacity="0.7"/>
<rect x="6" y="8" width="6" height="6" rx="3" fill="white"/>
</svg>
