<svg width="24" height="25" viewBox="0 0 24 25" fill="none" xmlns="http://www.w3.org/2000/svg">
<g clip-path="url(#clip0_37_166)">
<path d="M11.75 24C4 19.5 2.5 16.5 2.5 6C5.65 6 8.856 4.762 10.776 2.643C11.198 2.178 11.463 1.599 11.65 1H12.35C12.537 1.599 12.802 2.178 13.224 2.643C15.144 4.762 18.35 6 21.5 6C21.5 16.5 20 19.5 12.25 24H11.75Z" stroke="#073A41" stroke-width="1.5"/>
<path d="M11.898 8H12.102L12.252 8.542C12.4851 9.38573 12.9884 10.1297 13.685 10.6599C14.3815 11.19 15.2327 11.4771 16.108 11.477H16.5V11.643L16.135 11.895C15.4342 12.3786 14.906 13.0731 14.6273 13.8776C14.3485 14.6821 14.3337 15.5545 14.585 16.368L14.781 17H14.571C13.8451 16.4076 12.9369 16.084 12 16.084C11.0631 16.084 10.1549 16.4076 9.429 17H9.219L9.414 16.368C9.66532 15.5545 9.65052 14.6821 9.37175 13.8776C9.09297 13.0731 8.56477 12.3786 7.864 11.895L7.5 11.643V11.477H7.892C8.76733 11.4771 9.61852 11.19 10.315 10.6599C11.0116 10.1297 11.5149 9.38573 11.748 8.542L11.898 8Z" stroke="#073A41" stroke-width="1.5"/>
</g>
<defs>
<clipPath id="clip0_37_166">
<rect width="24" height="24" fill="white" transform="translate(0 0.5)"/>
</clipPath>
</defs>
</svg>
