<svg width="226" height="54" viewBox="0 0 226 54" fill="none" xmlns="http://www.w3.org/2000/svg">
<g filter="url(#filter0_d_106_36)">
<path opacity="0.8" fill-rule="evenodd" clip-rule="evenodd" d="M8.71971 29.0629C9.71755 30.055 9.71754 31.6635 8.71967 32.6556L8.66857 32.7064C7.6707 33.6985 6.05286 33.6985 5.05501 32.7064C4.05717 31.7143 4.05718 30.1058 5.05505 29.1137L5.10615 29.0629C6.10402 28.0708 7.72186 28.0708 8.71971 29.0629Z" fill="#E4E9EA"/>
<path opacity="0.9" fill-rule="evenodd" clip-rule="evenodd" d="M20.7321 29.8279C21.7281 30.8218 21.7252 32.4303 20.7256 33.4206L13.6477 40.4321C12.6481 41.4224 11.0302 41.4195 10.0342 40.4256C9.03814 39.4317 9.04107 37.8232 10.0407 36.8329L17.1185 29.8214C18.1182 28.8311 19.736 28.834 20.7321 29.8279Z" fill="#E4E9EA"/>
<path opacity="0.8" fill-rule="evenodd" clip-rule="evenodd" d="M30.3386 41.8981C31.1214 40.7307 32.7078 40.4153 33.882 41.1935L34.0353 41.2952C35.2095 42.0734 35.5267 43.6507 34.744 44.8181C33.9612 45.9855 32.3747 46.3009 31.2006 45.5227L31.0473 45.421C29.8731 44.6428 29.5558 43.0655 30.3386 41.8981Z" fill="#E4E9EA"/>
<path opacity="0.9" fill-rule="evenodd" clip-rule="evenodd" d="M47.2007 28.9106C48.1986 29.9027 48.1986 31.5112 47.2007 32.5033L43.7257 35.9582C42.7279 36.9503 41.11 36.9503 40.1122 35.9582C39.1143 34.9661 39.1143 33.3576 40.1122 32.3655L43.5872 28.9106C44.585 27.9185 46.2029 27.9185 47.2007 28.9106Z" fill="#E4E9EA"/>
<path fill-rule="evenodd" clip-rule="evenodd" d="M47.2518 16.1323C48.2497 17.1243 48.2497 18.7329 47.2518 19.7249L21.5724 45.2561C20.5745 46.2482 18.9567 46.2482 17.9588 45.2561C16.961 44.264 16.961 42.6555 17.9588 41.6634L43.6383 16.1323C44.6361 15.1402 46.254 15.1402 47.2518 16.1323Z" fill="#E4E9EA"/>
<path fill-rule="evenodd" clip-rule="evenodd" d="M42.3969 8.28216C43.3948 9.27425 43.3948 10.8828 42.3969 11.8748L27.6281 26.5584C26.6302 27.5505 25.0124 27.5505 24.0145 26.5584C23.0166 25.5664 23.0166 23.9579 24.0145 22.9658L38.7834 8.28216C39.7812 7.29006 41.3991 7.29006 42.3969 8.28216Z" fill="#E4E9EA"/>
<path fill-rule="evenodd" clip-rule="evenodd" d="M34.6025 3.30195C35.601 4.29337 35.6021 5.90187 34.6049 6.89463L15.62 25.7953C14.6228 26.7881 13.005 26.7892 12.0064 25.7977C11.0079 24.8063 11.0068 23.1978 12.004 22.2051L30.9889 3.30436C31.9861 2.3116 33.6039 2.31052 34.6025 3.30195Z" fill="#E4E9EA"/>
<path opacity="0.9" fill-rule="evenodd" clip-rule="evenodd" d="M15.8006 9.35215C16.7967 10.3459 16.7939 11.9544 15.7944 12.9448L8.35883 20.312C7.35926 21.3024 5.74142 21.2997 4.74528 20.3059C3.74915 19.312 3.75193 17.7036 4.7515 16.7132L12.187 9.34596C13.1866 8.35558 14.8045 8.35835 15.8006 9.35215Z" fill="#E4E9EA"/>
<path opacity="0.8" fill-rule="evenodd" clip-rule="evenodd" d="M20.353 2C21.7642 2 22.9082 3.13738 22.9082 4.54042V4.79446C22.9082 6.19749 21.7642 7.33487 20.353 7.33487C18.9418 7.33487 17.7979 6.19749 17.7979 4.79446V4.54042C17.7979 3.13738 18.9418 2 20.353 2Z" fill="#E4E9EA"/>
<path d="M66 23.4693H69.93C71.39 23.4693 72.67 23.2693 73.77 22.8693C74.89 22.4493 75.77 21.8493 76.41 21.0693C77.07 20.2893 77.4 19.3493 77.4 18.2493C77.4 17.0493 77.07 16.0593 76.41 15.2793C75.77 14.4793 74.89 13.8893 73.77 13.5093C72.67 13.1093 71.39 12.9093 69.93 12.9093H62.22V33.9093H70.44C72.1 33.9093 73.54 33.7093 74.76 33.3093C75.98 32.8893 76.92 32.2493 77.58 31.3893C78.26 30.5293 78.6 29.3993 78.6 27.9993C78.6 26.9393 78.36 26.0393 77.88 25.2993C77.42 24.5393 76.8 23.9193 76.02 23.4393C75.24 22.9393 74.37 22.5793 73.41 22.3593C72.45 22.1393 71.46 22.0293 70.44 22.0293H66V24.7893H69.87C70.37 24.7893 70.82 24.8393 71.22 24.9393C71.64 25.0193 72.01 25.1593 72.33 25.3593C72.65 25.5593 72.9 25.8193 73.08 26.1393C73.26 26.4593 73.35 26.8393 73.35 27.2793C73.35 27.9593 73.19 28.4993 72.87 28.8993C72.57 29.2793 72.16 29.5593 71.64 29.7393C71.12 29.8993 70.53 29.9793 69.87 29.9793H67.29V16.8393H69.39C70.27 16.8393 70.95 17.0193 71.43 17.3793C71.91 17.7393 72.15 18.2793 72.15 18.9993C72.15 19.4793 72.04 19.8893 71.82 20.2293C71.6 20.5493 71.28 20.7993 70.86 20.9793C70.46 21.1593 69.97 21.2493 69.39 21.2493H66V23.4693Z" fill="#E4E9EA"/>
<path d="M80.5218 14.9193C80.5218 15.6393 80.7818 16.2293 81.3018 16.6893C81.8218 17.1493 82.4418 17.3793 83.1618 17.3793C83.9018 17.3793 84.5218 17.1493 85.0218 16.6893C85.5418 16.2293 85.8018 15.6393 85.8018 14.9193C85.8018 14.1993 85.5418 13.6193 85.0218 13.1793C84.5218 12.7193 83.9018 12.4893 83.1618 12.4893C82.4418 12.4893 81.8218 12.7193 81.3018 13.1793C80.7818 13.6193 80.5218 14.1993 80.5218 14.9193ZM80.9718 20.1093V33.9093H85.3518V20.1093H80.9718Z" fill="#E4E9EA"/>
<path d="M87.3729 27.0093C87.3729 28.4493 87.7129 29.7093 88.3929 30.7893C89.0729 31.8693 90.0129 32.7093 91.2129 33.3093C92.4129 33.9093 93.7629 34.2093 95.2629 34.2093C96.7629 34.2093 98.1029 33.9093 99.2829 33.3093C100.483 32.7093 101.423 31.8693 102.103 30.7893C102.803 29.7093 103.153 28.4493 103.153 27.0093C103.153 25.5493 102.803 24.2793 102.103 23.1993C101.423 22.1193 100.483 21.2793 99.2829 20.6793C98.1029 20.0793 96.7629 19.7793 95.2629 19.7793C93.7629 19.7793 92.4129 20.0793 91.2129 20.6793C90.0129 21.2793 89.0729 22.1193 88.3929 23.1993C87.7129 24.2793 87.3729 25.5493 87.3729 27.0093ZM92.0229 27.0093C92.0229 26.2893 92.1729 25.6693 92.4729 25.1493C92.7729 24.6293 93.1629 24.2293 93.6429 23.9493C94.1229 23.6693 94.6629 23.5293 95.2629 23.5293C95.8429 23.5293 96.3729 23.6693 96.8529 23.9493C97.3529 24.2293 97.7429 24.6293 98.0229 25.1493C98.3229 25.6693 98.4729 26.2893 98.4729 27.0093C98.4729 27.7293 98.3229 28.3493 98.0229 28.8693C97.7429 29.3693 97.3529 29.7593 96.8529 30.0393C96.3729 30.3193 95.8429 30.4593 95.2629 30.4593C94.6629 30.4593 94.1229 30.3193 93.6429 30.0393C93.1629 29.7593 92.7729 29.3693 92.4729 28.8693C92.1729 28.3493 92.0229 27.7293 92.0229 27.0093Z" fill="#E4E9EA"/>
<path d="M105.728 28.8993L103.838 31.8993C104.458 32.3793 105.128 32.8193 105.848 33.2193C106.568 33.5993 107.348 33.8993 108.188 34.1193C109.048 34.3593 109.978 34.4793 110.978 34.4793C112.618 34.4793 113.888 34.1093 114.788 33.3693C115.708 32.6093 116.168 31.4893 116.168 30.0093C116.168 29.1493 115.978 28.4593 115.598 27.9393C115.238 27.4193 114.748 26.9893 114.128 26.6493C113.528 26.3093 112.868 26.0093 112.148 25.7493C111.468 25.4893 110.888 25.2793 110.408 25.1193C109.948 24.9393 109.588 24.7493 109.328 24.5493C109.088 24.3493 108.968 24.0993 108.968 23.7993C108.968 23.5393 109.068 23.3293 109.268 23.1693C109.488 23.0093 109.808 22.9293 110.228 22.9293C110.848 22.9293 111.528 23.1093 112.268 23.4693C113.008 23.8093 113.668 24.2493 114.248 24.7893L115.868 21.8493C115.328 21.4493 114.748 21.0993 114.128 20.7993C113.528 20.4993 112.878 20.2593 112.178 20.0793C111.498 19.8993 110.758 19.8093 109.958 19.8093C108.958 19.8093 108.068 19.9593 107.288 20.2593C106.528 20.5593 105.918 20.9993 105.458 21.5793C105.018 22.1593 104.798 22.8693 104.798 23.7093C104.798 24.5893 104.988 25.3093 105.368 25.8693C105.748 26.4293 106.228 26.8793 106.808 27.2193C107.408 27.5393 108.038 27.8193 108.698 28.0593C109.438 28.2793 110.018 28.4893 110.438 28.6893C110.878 28.8893 111.188 29.0993 111.368 29.3193C111.548 29.5193 111.638 29.7693 111.638 30.0693C111.638 30.3893 111.528 30.6493 111.308 30.8493C111.088 31.0493 110.748 31.1493 110.288 31.1493C109.968 31.1493 109.588 31.0893 109.148 30.9693C108.708 30.8293 108.198 30.5993 107.618 30.2793C107.058 29.9393 106.428 29.4793 105.728 28.8993Z" fill="#E4E9EA"/>
<path d="M131.743 20.1093H127.093L122.683 31.1493L125.023 31.1793L120.553 20.1093H115.573L121.543 32.7993L118.183 40.5093H122.743L131.743 20.1093Z" fill="#E4E9EA"/>
<path d="M141.328 25.5093V33.9093H146.038V25.0293C146.038 23.3693 145.648 22.0793 144.868 21.1593C144.088 20.2393 142.838 19.7793 141.118 19.7793C140.098 19.7793 139.238 19.9893 138.538 20.4093C137.858 20.8293 137.318 21.4193 136.918 22.1793V20.1093H132.358V33.9093H136.918V25.5093C136.918 24.9693 137.018 24.5093 137.218 24.1293C137.418 23.7493 137.698 23.4593 138.058 23.2593C138.418 23.0593 138.838 22.9593 139.318 22.9593C140.038 22.9593 140.548 23.1793 140.848 23.6193C141.168 24.0593 141.328 24.6893 141.328 25.5093Z" fill="#E4E9EA"/>
<path d="M147.094 20.1093V23.8593H156.334V20.1093H147.094ZM149.524 15.3093V33.9093H153.874V15.3093H149.524Z" fill="#E4E9EA"/>
<path d="M161.924 10.5093H157.364V33.9093H161.924V10.5093ZM166.334 25.5093V33.9093H170.864V24.8493C170.864 23.7093 170.704 22.7493 170.384 21.9693C170.064 21.1893 169.554 20.5993 168.854 20.1993C168.174 19.7993 167.264 19.5993 166.124 19.5993C164.984 19.5993 164.044 19.8693 163.304 20.4093C162.584 20.9293 162.045 21.6393 161.685 22.5393C161.325 23.4193 161.145 24.4093 161.145 25.5093H161.924C161.924 24.9693 162.024 24.5193 162.224 24.1593C162.424 23.7793 162.704 23.4893 163.064 23.2893C163.424 23.0693 163.845 22.9593 164.325 22.9593C165.065 22.9593 165.584 23.1793 165.884 23.6193C166.184 24.0593 166.334 24.6893 166.334 25.5093Z" fill="#E4E9EA"/>
<path d="M180.565 34.2093C182.325 34.2093 183.815 33.8693 185.035 33.1893C186.275 32.5093 187.255 31.4893 187.975 30.1293L183.925 29.1393C183.585 29.7393 183.125 30.1893 182.545 30.4893C181.985 30.7893 181.305 30.9393 180.505 30.9393C179.805 30.9393 179.215 30.7893 178.735 30.4893C178.255 30.1693 177.895 29.7093 177.655 29.1093C177.415 28.5093 177.295 27.7893 177.295 26.9493C177.315 26.0293 177.435 25.2693 177.655 24.6693C177.895 24.0493 178.245 23.5893 178.705 23.2893C179.165 22.9893 179.735 22.8393 180.415 22.8393C180.955 22.8393 181.425 22.9593 181.825 23.1993C182.225 23.4393 182.535 23.7793 182.755 24.2193C182.975 24.6593 183.085 25.1793 183.085 25.7793C183.085 25.9193 183.045 26.0993 182.965 26.3193C182.905 26.5193 182.825 26.6893 182.725 26.8293L183.805 25.4493H175.285V27.9693H187.885C187.925 27.8293 187.945 27.6593 187.945 27.4593C187.945 27.2393 187.945 27.0193 187.945 26.7993C187.945 25.3193 187.655 24.0593 187.075 23.0193C186.495 21.9793 185.655 21.1893 184.555 20.6493C183.455 20.0893 182.105 19.8093 180.505 19.8093C178.905 19.8093 177.515 20.0993 176.335 20.6793C175.175 21.2593 174.285 22.0893 173.665 23.1693C173.045 24.2493 172.735 25.5293 172.735 27.0093C172.735 28.4693 173.055 29.7393 173.695 30.8193C174.335 31.8993 175.235 32.7393 176.395 33.3393C177.575 33.9193 178.965 34.2093 180.565 34.2093Z" fill="#E4E9EA"/>
<path d="M190.592 28.8993L188.702 31.8993C189.322 32.3793 189.992 32.8193 190.712 33.2193C191.432 33.5993 192.212 33.8993 193.052 34.1193C193.912 34.3593 194.842 34.4793 195.842 34.4793C197.482 34.4793 198.752 34.1093 199.652 33.3693C200.572 32.6093 201.032 31.4893 201.032 30.0093C201.032 29.1493 200.842 28.4593 200.462 27.9393C200.102 27.4193 199.612 26.9893 198.992 26.6493C198.392 26.3093 197.732 26.0093 197.012 25.7493C196.332 25.4893 195.752 25.2793 195.272 25.1193C194.812 24.9393 194.452 24.7493 194.192 24.5493C193.952 24.3493 193.832 24.0993 193.832 23.7993C193.832 23.5393 193.932 23.3293 194.132 23.1693C194.352 23.0093 194.672 22.9293 195.092 22.9293C195.712 22.9293 196.392 23.1093 197.132 23.4693C197.872 23.8093 198.532 24.2493 199.112 24.7893L200.732 21.8493C200.192 21.4493 199.612 21.0993 198.992 20.7993C198.392 20.4993 197.742 20.2593 197.042 20.0793C196.362 19.8993 195.622 19.8093 194.822 19.8093C193.822 19.8093 192.932 19.9593 192.152 20.2593C191.392 20.5593 190.782 20.9993 190.322 21.5793C189.882 22.1593 189.662 22.8693 189.662 23.7093C189.662 24.5893 189.852 25.3093 190.232 25.8693C190.612 26.4293 191.092 26.8793 191.672 27.2193C192.272 27.5393 192.902 27.8193 193.562 28.0593C194.302 28.2793 194.882 28.4893 195.302 28.6893C195.742 28.8893 196.052 29.0993 196.232 29.3193C196.412 29.5193 196.502 29.7693 196.502 30.0693C196.502 30.3893 196.392 30.6493 196.172 30.8493C195.952 31.0493 195.612 31.1493 195.152 31.1493C194.832 31.1493 194.452 31.0893 194.012 30.9693C193.572 30.8293 193.062 30.5993 192.482 30.2793C191.922 29.9393 191.292 29.4793 190.592 28.8993Z" fill="#E4E9EA"/>
<path d="M202.353 14.9193C202.353 15.6393 202.613 16.2293 203.133 16.6893C203.653 17.1493 204.273 17.3793 204.993 17.3793C205.733 17.3793 206.353 17.1493 206.853 16.6893C207.373 16.2293 207.633 15.6393 207.633 14.9193C207.633 14.1993 207.373 13.6193 206.853 13.1793C206.353 12.7193 205.733 12.4893 204.993 12.4893C204.273 12.4893 203.653 12.7193 203.133 13.1793C202.613 13.6193 202.353 14.1993 202.353 14.9193ZM202.803 20.1093V33.9093H207.183V20.1093H202.803Z" fill="#E4E9EA"/>
<path d="M210.765 28.8993L208.875 31.8993C209.495 32.3793 210.165 32.8193 210.885 33.2193C211.605 33.5993 212.385 33.8993 213.225 34.1193C214.085 34.3593 215.015 34.4793 216.015 34.4793C217.655 34.4793 218.925 34.1093 219.825 33.3693C220.745 32.6093 221.205 31.4893 221.205 30.0093C221.205 29.1493 221.015 28.4593 220.635 27.9393C220.275 27.4193 219.785 26.9893 219.165 26.6493C218.565 26.3093 217.905 26.0093 217.185 25.7493C216.505 25.4893 215.925 25.2793 215.445 25.1193C214.985 24.9393 214.625 24.7493 214.365 24.5493C214.125 24.3493 214.005 24.0993 214.005 23.7993C214.005 23.5393 214.105 23.3293 214.305 23.1693C214.525 23.0093 214.845 22.9293 215.265 22.9293C215.885 22.9293 216.565 23.1093 217.305 23.4693C218.045 23.8093 218.705 24.2493 219.285 24.7893L220.905 21.8493C220.365 21.4493 219.785 21.0993 219.165 20.7993C218.565 20.4993 217.915 20.2593 217.215 20.0793C216.535 19.8993 215.795 19.8093 214.995 19.8093C213.995 19.8093 213.105 19.9593 212.325 20.2593C211.565 20.5593 210.955 20.9993 210.495 21.5793C210.055 22.1593 209.835 22.8693 209.835 23.7093C209.835 24.5893 210.025 25.3093 210.405 25.8693C210.785 26.4293 211.265 26.8793 211.845 27.2193C212.445 27.5393 213.075 27.8193 213.735 28.0593C214.475 28.2793 215.055 28.4893 215.475 28.6893C215.915 28.8893 216.225 29.0993 216.405 29.3193C216.585 29.5193 216.675 29.7693 216.675 30.0693C216.675 30.3893 216.565 30.6493 216.345 30.8493C216.125 31.0493 215.785 31.1493 215.325 31.1493C215.005 31.1493 214.625 31.0893 214.185 30.9693C213.745 30.8293 213.235 30.5993 212.655 30.2793C212.095 29.9393 211.465 29.4793 210.765 28.8993Z" fill="#E4E9EA"/>
</g>
<defs>
<filter id="filter0_d_106_36" x="0" y="0" width="226" height="56" filterUnits="userSpaceOnUse" color-interpolation-filters="sRGB">
<feFlood flood-opacity="0" result="BackgroundImageFix"/>
<feColorMatrix in="SourceAlpha" type="matrix" values="0 0 0 0 0 0 0 0 0 0 0 0 0 0 0 0 0 0 127 0" result="hardAlpha"/>
<feOffset dy="4"/>
<feGaussianBlur stdDeviation="2"/>
<feComposite in2="hardAlpha" operator="out"/>
<feColorMatrix type="matrix" values="0 0 0 0 0 0 0 0 0 0 0 0 0 0 0 0 0 0 0.25 0"/>
<feBlend mode="normal" in2="BackgroundImageFix" result="effect1_dropShadow_106_36"/>
<feBlend mode="normal" in="SourceGraphic" in2="effect1_dropShadow_106_36" result="shape"/>
</filter>
</defs>
</svg>
