<svg width="178" height="54" viewBox="0 0 178 54" fill="none" xmlns="http://www.w3.org/2000/svg">
<g filter="url(#filter0_d_106_38)">
<path fill-rule="evenodd" clip-rule="evenodd" d="M26 46C38.1503 46 48 36.1503 48 24C48 11.8497 38.1503 2 26 2C13.8497 2 4 11.8497 4 24C4 36.1503 13.8497 46 26 46ZM32.8632 12.2485C33.1973 11.0619 32.0457 10.3601 30.994 11.1094L16.3124 21.5685C15.1718 22.3811 15.3512 24 16.5819 24H20.448V23.9701H27.9828L21.8433 26.1363L19.1368 35.7515C18.8027 36.9382 19.9542 37.6399 21.006 36.8906L35.6876 26.4315C36.8282 25.619 36.6487 24 35.4181 24H29.5553L32.8632 12.2485Z" fill="#E4E9EA"/>
<path d="M59.3799 33.9093V30.4293H62.1399V16.3893H59.3799V12.9093H70.1799C71.4599 12.9093 72.5699 13.1293 73.5099 13.5693C74.4699 13.9893 75.2099 14.5993 75.7299 15.3993C76.2699 16.1793 76.5399 17.1193 76.5399 18.2193V18.5193C76.5399 19.4793 76.3599 20.2693 75.9999 20.8893C75.6399 21.4893 75.2099 21.9593 74.7099 22.2993C74.2299 22.6193 73.7699 22.8493 73.3299 22.9893V23.5293C73.7699 23.6493 74.2499 23.8793 74.7699 24.2193C75.2899 24.5393 75.7299 25.0093 76.0899 25.6293C76.4699 26.2493 76.6599 27.0593 76.6599 28.0593V28.3593C76.6599 29.5193 76.3899 30.5193 75.8499 31.3593C75.3099 32.1793 74.5599 32.8093 73.5999 33.2493C72.6599 33.6893 71.5599 33.9093 70.2999 33.9093H59.3799ZM66.0999 30.3093H69.8199C70.6799 30.3093 71.3699 30.0993 71.8899 29.6793C72.4299 29.2593 72.6999 28.6593 72.6999 27.8793V27.5793C72.6999 26.7993 72.4399 26.1993 71.9199 25.7793C71.3999 25.3593 70.6999 25.1493 69.8199 25.1493H66.0999V30.3093ZM66.0999 21.5493H69.7599C70.5799 21.5493 71.2499 21.3393 71.7699 20.9193C72.3099 20.4993 72.5799 19.9193 72.5799 19.1793V18.8793C72.5799 18.1193 72.3199 17.5393 71.7999 17.1393C71.2799 16.7193 70.5999 16.5093 69.7599 16.5093H66.0999V21.5493Z" fill="#E4E9EA"/>
<path d="M85.6018 34.3293C84.1218 34.3293 82.7918 34.0293 81.6118 33.4293C80.4318 32.8293 79.5018 31.9593 78.8218 30.8193C78.1418 29.6793 77.8018 28.3093 77.8018 26.7093V26.2293C77.8018 24.6293 78.1418 23.2593 78.8218 22.1193C79.5018 20.9793 80.4318 20.1093 81.6118 19.5093C82.7918 18.9093 84.1218 18.6093 85.6018 18.6093C87.0818 18.6093 88.4118 18.9093 89.5918 19.5093C90.7718 20.1093 91.7018 20.9793 92.3818 22.1193C93.0618 23.2593 93.4018 24.6293 93.4018 26.2293V26.7093C93.4018 28.3093 93.0618 29.6793 92.3818 30.8193C91.7018 31.9593 90.7718 32.8293 89.5918 33.4293C88.4118 34.0293 87.0818 34.3293 85.6018 34.3293ZM85.6018 30.9693C86.7618 30.9693 87.7218 30.5993 88.4818 29.8593C89.2418 29.0993 89.6218 28.0193 89.6218 26.6193V26.3193C89.6218 24.9193 89.2418 23.8493 88.4818 23.1093C87.7418 22.3493 86.7818 21.9693 85.6018 21.9693C84.4418 21.9693 83.4818 22.3493 82.7218 23.1093C81.9618 23.8493 81.5818 24.9193 81.5818 26.3193V26.6193C81.5818 28.0193 81.9618 29.0993 82.7218 29.8593C83.4818 30.5993 84.4418 30.9693 85.6018 30.9693Z" fill="#E4E9EA"/>
<path d="M95.3909 33.9093V12.9093H99.1709V33.9093H95.3909Z" fill="#E4E9EA"/>
<path d="M107.56 33.9093C106.58 33.9093 105.78 33.6093 105.16 33.0093C104.56 32.3893 104.26 31.5693 104.26 30.5493V22.1493H100.54V19.0293H104.26V14.4093H108.04V19.0293H112.12V22.1493H108.04V29.8893C108.04 30.4893 108.32 30.7893 108.88 30.7893H111.76V33.9093H107.56Z" fill="#E4E9EA"/>
<path d="M120.221 34.3293C118.281 34.3293 116.691 33.9093 115.451 33.0693C114.211 32.2293 113.461 31.0293 113.201 29.4693L116.681 28.5693C116.821 29.2693 117.051 29.8193 117.371 30.2193C117.711 30.6193 118.121 30.9093 118.601 31.0893C119.101 31.2493 119.641 31.3293 120.221 31.3293C121.101 31.3293 121.751 31.1793 122.171 30.8793C122.591 30.5593 122.801 30.1693 122.801 29.7093C122.801 29.2493 122.601 28.8993 122.201 28.6593C121.801 28.3993 121.161 28.1893 120.281 28.0293L119.441 27.8793C118.401 27.6793 117.451 27.4093 116.591 27.0693C115.731 26.7093 115.041 26.2193 114.521 25.5993C114.001 24.9793 113.741 24.1793 113.741 23.1993C113.741 21.7193 114.281 20.5893 115.361 19.8093C116.441 19.0093 117.861 18.6093 119.621 18.6093C121.281 18.6093 122.661 18.9793 123.761 19.7193C124.861 20.4593 125.581 21.4293 125.921 22.6293L122.411 23.7093C122.251 22.9493 121.921 22.4093 121.421 22.0893C120.941 21.7693 120.341 21.6093 119.621 21.6093C118.901 21.6093 118.351 21.7393 117.971 21.9993C117.591 22.2393 117.401 22.5793 117.401 23.0193C117.401 23.4993 117.601 23.8593 118.001 24.0993C118.401 24.3193 118.941 24.4893 119.621 24.6093L120.461 24.7593C121.581 24.9593 122.591 25.2293 123.491 25.5693C124.411 25.8893 125.131 26.3593 125.651 26.9793C126.191 27.5793 126.461 28.3993 126.461 29.4393C126.461 30.9993 125.891 32.2093 124.751 33.0693C123.631 33.9093 122.121 34.3293 120.221 34.3293Z" fill="#E4E9EA"/>
<path d="M128.274 33.9093V12.9093H132.054V20.8593H132.594C132.754 20.5393 133.004 20.2193 133.344 19.8993C133.684 19.5793 134.134 19.3193 134.694 19.1193C135.274 18.8993 136.004 18.7893 136.884 18.7893C138.044 18.7893 139.054 19.0593 139.914 19.5993C140.794 20.1193 141.474 20.8493 141.954 21.7893C142.434 22.7093 142.674 23.7893 142.674 25.0293V33.9093H138.894V25.3293C138.894 24.2093 138.614 23.3693 138.054 22.8093C137.514 22.2493 136.734 21.9693 135.714 21.9693C134.554 21.9693 133.654 22.3593 133.014 23.1393C132.374 23.8993 132.054 24.9693 132.054 26.3493V33.9093H128.274Z" fill="#E4E9EA"/>
<path d="M145.26 33.9093V19.0293H149.04V33.9093H145.26ZM147.15 17.2893C146.47 17.2893 145.89 17.0693 145.41 16.6293C144.95 16.1893 144.72 15.6093 144.72 14.8893C144.72 14.1693 144.95 13.5893 145.41 13.1493C145.89 12.7093 146.47 12.4893 147.15 12.4893C147.85 12.4893 148.43 12.7093 148.89 13.1493C149.35 13.5893 149.58 14.1693 149.58 14.8893C149.58 15.6093 149.35 16.1893 148.89 16.6293C148.43 17.0693 147.85 17.2893 147.15 17.2893Z" fill="#E4E9EA"/>
<path d="M154.189 33.9093V22.1493H150.409V19.0293H154.189V16.2693C154.189 15.2493 154.489 14.4393 155.089 13.8393C155.709 13.2193 156.509 12.9093 157.489 12.9093H161.389V16.0293H158.809C158.249 16.0293 157.969 16.3293 157.969 16.9293V19.0293H161.869V22.1493H157.969V33.9093H154.189Z" fill="#E4E9EA"/>
<path d="M168.702 33.9093C167.722 33.9093 166.922 33.6093 166.302 33.0093C165.702 32.3893 165.402 31.5693 165.402 30.5493V22.1493H161.682V19.0293H165.402V14.4093H169.182V19.0293H173.262V22.1493H169.182V29.8893C169.182 30.4893 169.462 30.7893 170.022 30.7893H172.902V33.9093H168.702Z" fill="#E4E9EA"/>
</g>
<defs>
<filter id="filter0_d_106_38" x="0" y="0" width="178" height="56" filterUnits="userSpaceOnUse" color-interpolation-filters="sRGB">
<feFlood flood-opacity="0" result="BackgroundImageFix"/>
<feColorMatrix in="SourceAlpha" type="matrix" values="0 0 0 0 0 0 0 0 0 0 0 0 0 0 0 0 0 0 127 0" result="hardAlpha"/>
<feOffset dy="4"/>
<feGaussianBlur stdDeviation="2"/>
<feComposite in2="hardAlpha" operator="out"/>
<feColorMatrix type="matrix" values="0 0 0 0 0 0 0 0 0 0 0 0 0 0 0 0 0 0 0.25 0"/>
<feBlend mode="normal" in2="BackgroundImageFix" result="effect1_dropShadow_106_38"/>
<feBlend mode="normal" in="SourceGraphic" in2="effect1_dropShadow_106_38" result="shape"/>
</filter>
</defs>
</svg>
