<svg width="32" height="32" viewBox="0 0 32 32" fill="none" xmlns="http://www.w3.org/2000/svg">
<path d="M16 29.3332V11.9998M20 22.6665H21.3333C22.9865 22.6678 24.5812 22.0549 25.8078 20.9467C27.0345 19.8384 27.8057 18.314 27.9717 16.6692C28.1376 15.0244 27.6866 13.3766 26.706 12.0456C25.7255 10.7146 24.2854 9.79547 22.6653 9.4665C22.6653 5.78384 20 2.6665 16 2.6665C12 2.6665 9.33465 5.78384 9.33465 9.4665C7.71962 9.80104 6.28584 10.7221 5.31018 12.0519C4.33452 13.3817 3.88619 15.0258 4.05178 16.6668C4.21737 18.3078 4.98513 19.8292 6.20679 20.9372C7.42845 22.0453 9.01735 22.6614 10.6666 22.6665H12M16 19.9998L19.3333 16.6665M16 17.3332L12.6666 13.9998M13.3333 29.3332H18.6666" stroke="#073A41" stroke-width="1.5" stroke-linecap="round" stroke-linejoin="round"/>
</svg>
